<?xml version="1.0" encoding="UTF-8" standalone="no"?>
<!DOCTYPE svg PUBLIC "-//W3C//DTD SVG 1.1//EN" "http://www.w3.org/Graphics/SVG/1.1/DTD/svg11.dtd">
<svg xmlns="http://www.w3.org/2000/svg" version="1.1" viewBox="0.00 0.00 1024.00 1024.00">
<path fill="#ffffff" d="
  M 510.5992 330.8933
  L 507.0965 330.5842
  L 503.6410 329.9293
  L 500.2659 328.9351
  L 497.0036 327.6111
  L 493.8857 325.9701
  L 490.9422 324.0278
  L 488.2013 321.8030
  L 485.6896 319.3170
  L 483.4311 316.5939
  L 481.4477 313.6598
  L 479.7584 310.5431
  L 478.3796 307.2737
  L 477.3244 303.8831
  L 476.6030 300.4039
  L 476.2225 296.8697
  L 476.1864 293.3146
  L 476.4951 289.7726
  L 477.1457 286.2781
  L 478.1318 282.8645
  L 479.4440 279.5649
  L 481.0697 276.4109
  L 482.9931 273.4329
  L 485.1958 270.6596
  L 487.6565 268.1178
  L 490.3515 265.8319
  L 493.2550 263.8239
  L 496.3389 262.1132
  L 499.5735 260.7162
  L 502.9277 259.6463
  L 506.3691 258.9140
  L 509.8647 258.5262
  L 513.3808 258.4867
  L 513.3808 258.4867
  L 516.8835 258.7958
  L 520.3390 259.4507
  L 523.7141 260.4449
  L 526.9764 261.7689
  L 530.0943 263.4099
  L 533.0378 265.3522
  L 535.7787 267.5770
  L 538.2904 270.0630
  L 540.5489 272.7861
  L 542.5323 275.7202
  L 544.2216 278.8369
  L 545.6004 282.1063
  L 546.6556 285.4969
  L 547.3770 288.9761
  L 547.7575 292.5103
  L 547.7936 296.0654
  L 547.4849 299.6074
  L 546.8343 303.1019
  L 545.8482 306.5155
  L 544.5360 309.8151
  L 542.9103 312.9691
  L 540.9869 315.9471
  L 538.7842 318.7204
  L 536.3235 321.2622
  L 533.6285 323.5481
  L 530.7250 325.5561
  L 527.6411 327.2668
  L 524.4065 328.6638
  L 521.0523 329.7337
  L 517.6109 330.4660
  L 514.1153 330.8538
  L 510.5992 330.8933
  Z
  M 536.40 294.75
  L 536.28 292.36
  L 535.93 289.99
  L 535.35 287.67
  L 534.54 285.41
  L 533.52 283.25
  L 532.29 281.19
  L 530.86 279.27
  L 529.25 277.50
  L 527.48 275.89
  L 525.56 274.46
  L 523.50 273.23
  L 521.34 272.21
  L 519.08 271.40
  L 516.76 270.82
  L 514.39 270.47
  L 512.00 270.35
  L 509.61 270.47
  L 507.24 270.82
  L 504.92 271.40
  L 502.66 272.21
  L 500.50 273.23
  L 498.44 274.46
  L 496.52 275.89
  L 494.75 277.50
  L 493.14 279.27
  L 491.71 281.19
  L 490.48 283.25
  L 489.46 285.41
  L 488.65 287.67
  L 488.07 289.99
  L 487.72 292.36
  L 487.60 294.75
  L 487.72 297.14
  L 488.07 299.51
  L 488.65 301.83
  L 489.46 304.09
  L 490.48 306.25
  L 491.71 308.31
  L 493.14 310.23
  L 494.75 312.00
  L 496.52 313.61
  L 498.44 315.04
  L 500.50 316.27
  L 502.66 317.29
  L 504.92 318.10
  L 507.24 318.68
  L 509.61 319.03
  L 512.00 319.15
  L 514.39 319.03
  L 516.76 318.68
  L 519.08 318.10
  L 521.34 317.29
  L 523.50 316.27
  L 525.56 315.04
  L 527.48 313.61
  L 529.25 312.00
  L 530.86 310.23
  L 532.29 308.31
  L 533.52 306.25
  L 534.54 304.09
  L 535.35 301.83
  L 535.93 299.51
  L 536.28 297.14
  L 536.40 294.75
  Z"
/>
<path fill="#ffffff" d="
  M 446.1640 398.7769
  L 442.9493 398.3386
  L 439.7932 397.5814
  L 436.7261 396.5127
  L 433.7777 395.1427
  L 430.9762 393.4846
  L 428.3487 391.5544
  L 425.9204 389.3707
  L 423.7149 386.9545
  L 421.7532 384.3291
  L 420.0543 381.5197
  L 418.6345 378.5535
  L 417.5076 375.4589
  L 416.6843 372.2659
  L 416.1727 369.0051
  L 415.9775 365.7079
  L 416.1008 362.4061
  L 416.5413 359.1315
  L 417.2948 355.9157
  L 418.3540 352.7895
  L 419.7088 349.7832
  L 421.3460 346.9256
  L 423.2499 344.2443
  L 425.4022 341.7652
  L 427.7821 339.5119
  L 430.3668 337.5064
  L 433.1313 335.7679
  L 436.0490 334.3131
  L 439.0918 333.1560
  L 442.2304 332.3078
  L 445.4346 331.7767
  L 448.6735 331.5678
  L 451.9160 331.6831
  L 451.9160 331.6831
  L 455.1307 332.1214
  L 458.2868 332.8786
  L 461.3539 333.9473
  L 464.3023 335.3173
  L 467.1038 336.9754
  L 469.7313 338.9056
  L 472.1596 341.0893
  L 474.3651 343.5055
  L 476.3268 346.1309
  L 478.0257 348.9403
  L 479.4455 351.9065
  L 480.5724 355.0011
  L 481.3957 358.1941
  L 481.9073 361.4549
  L 482.1025 364.7521
  L 481.9792 368.0539
  L 481.5387 371.3285
  L 480.7852 374.5443
  L 479.7260 377.6705
  L 478.3712 380.6768
  L 476.7340 383.5344
  L 474.8301 386.2157
  L 472.6778 388.6948
  L 470.2979 390.9481
  L 467.7132 392.9536
  L 464.9487 394.6921
  L 462.0310 396.1469
  L 458.9882 397.3040
  L 455.8496 398.1522
  L 452.6454 398.6833
  L 449.4065 398.8922
  L 446.1640 398.7769
  Z
  M 448.43 387.18
  L 452.37 387.05
  L 455.38 386.43
  L 458.09 385.25
  L 460.73 383.60
  L 463.20 381.55
  L 465.43 379.17
  L 467.26 376.64
  L 468.71 373.94
  L 469.68 371.25
  L 470.19 368.50
  L 470.32 363.92
  L 469.82 359.77
  L 468.68 356.05
  L 466.91 352.76
  L 466.91 352.76
  L 466.91 352.76
  L 464.69 350.09
  L 461.92 347.79
  L 458.60 345.87
  L 454.73 344.32
  L 452.87 344.00
  L 449.62 343.83
  L 446.37 343.83
  L 444.49 344.04
  L 440.54 345.38
  L 437.11 347.11
  L 434.22 349.26
  L 431.86 351.80
  L 431.86 351.80
  L 431.86 351.80
  L 429.91 354.99
  L 428.57 358.64
  L 427.84 362.75
  L 427.73 367.34
  L 428.09 370.11
  L 428.91 372.85
  L 430.21 375.63
  L 431.89 378.25
  L 433.99 380.75
  L 436.35 382.93
  L 438.89 384.72
  L 441.53 386.05
  L 444.51 386.84
  L 448.43 387.18
  Z"
/>
<path fill="#ffffff" d="
  M 574.9822 399.1098
  L 571.7443 398.9359
  L 568.5387 398.4386
  L 565.3963 397.6226
  L 562.3473 396.4958
  L 559.4212 395.0691
  L 556.6461 393.3562
  L 554.0487 391.3735
  L 551.6540 389.1402
  L 549.4851 386.6778
  L 547.5629 384.0100
  L 545.9059 381.1625
  L 544.5301 378.1628
  L 543.4487 375.0396
  L 542.6721 371.8231
  L 542.2077 368.5443
  L 542.0602 365.2347
  L 542.2308 361.9262
  L 542.7180 358.6507
  L 543.5171 355.4397
  L 544.6203 352.3241
  L 546.0171 349.3340
  L 547.6939 346.4982
  L 549.6346 343.8439
  L 551.8207 341.3967
  L 554.2309 339.1802
  L 556.8421 337.2157
  L 559.6291 335.5222
  L 562.5651 334.1159
  L 565.6218 333.0104
  L 568.7698 332.2164
  L 571.9788 331.7415
  L 575.2178 331.5902
  L 575.2178 331.5902
  L 578.4557 331.7641
  L 581.6613 332.2614
  L 584.8037 333.0774
  L 587.8527 334.2042
  L 590.7788 335.6309
  L 593.5539 337.3438
  L 596.1513 339.3265
  L 598.5460 341.5598
  L 600.7149 344.0222
  L 602.6371 346.6900
  L 604.2941 349.5375
  L 605.6699 352.5372
  L 606.7513 355.6604
  L 607.5279 358.8769
  L 607.9923 362.1557
  L 608.1398 365.4653
  L 607.9692 368.7738
  L 607.4820 372.0493
  L 606.6829 375.2603
  L 605.5797 378.3759
  L 604.1829 381.3660
  L 602.5061 384.2018
  L 600.5654 386.8561
  L 598.3793 389.3033
  L 595.9691 391.5198
  L 593.3579 393.4843
  L 590.5709 395.1778
  L 587.6349 396.5841
  L 584.5782 397.6896
  L 581.4302 398.4836
  L 578.2212 398.9585
  L 574.9822 399.1098
  Z
  M 572.8470 387.1384
  L 574.9688 387.2484
  L 577.0914 387.1485
  L 579.1943 386.8396
  L 581.2574 386.3247
  L 583.2606 385.6088
  L 585.1848 384.6988
  L 587.0113 383.6033
  L 588.7227 382.3331
  L 590.3024 380.9002
  L 591.7352 379.3186
  L 593.0073 377.6034
  L 594.1065 375.7711
  L 595.0222 373.8395
  L 595.7455 371.8270
  L 596.2695 369.7532
  L 596.5892 367.6379
  L 596.7014 365.5015
  L 596.6051 363.3646
  L 596.3012 361.2478
  L 595.7927 359.1715
  L 595.0843 357.1557
  L 594.1831 355.2197
  L 593.0976 353.3823
  L 591.8383 351.6610
  L 590.4173 350.0726
  L 588.8483 348.6323
  L 587.1464 347.3539
  L 585.3280 346.2498
  L 583.4107 345.3306
  L 581.4128 344.6052
  L 579.3536 344.0805
  L 577.2530 343.7616
  L 577.2530 343.7616
  L 575.1312 343.6516
  L 573.0086 343.7515
  L 570.9057 344.0604
  L 568.8426 344.5753
  L 566.8394 345.2912
  L 564.9152 346.2012
  L 563.0887 347.2967
  L 561.3773 348.5669
  L 559.7976 349.9998
  L 558.3648 351.5814
  L 557.0927 353.2966
  L 555.9935 355.1289
  L 555.0778 357.0605
  L 554.3545 359.0730
  L 553.8305 361.1468
  L 553.5108 363.2621
  L 553.3986 365.3985
  L 553.4949 367.5354
  L 553.7988 369.6522
  L 554.3073 371.7285
  L 555.0157 373.7443
  L 555.9169 375.6803
  L 557.0024 377.5177
  L 558.2617 379.2390
  L 559.6827 380.8274
  L 561.2517 382.2677
  L 562.9536 383.5461
  L 564.7720 384.6502
  L 566.6893 385.5694
  L 568.6872 386.2948
  L 570.7464 386.8195
  L 572.8470 387.1384
  Z"
/>
<path fill="#ffffff" d="
  M 613.67 524.75
  L 614.49 524.39
  L 617.13 523.02
  L 619.64 521.37
  L 623.87 518.65
  L 626.16 517.24
  L 630.40 514.27
  L 634.59 511.03
  L 638.75 507.55
  L 642.86 503.80
  L 645.90 500.76
  L 648.74 497.56
  L 648.74 497.56
  L 651.93 493.46
  L 654.84 489.11
  L 660.25 479.73
  L 662.21 475.73
  L 663.68 472.20
  L 664.96 468.44
  L 666.02 464.62
  L 666.02 464.62
  L 666.02 464.62
  L 666.02 464.62
  L 666.96 460.27
  L 667.62 455.85
  L 668.01 451.36
  L 668.13 446.81
  L 668.32 446.23
  L 668.89 446.04
  L 677.68 446.04
  L 678.36 446.30
  L 678.70 446.96
  L 678.89 451.03
  L 678.04 464.94
  L 677.01 475.89
  L 675.35 486.64
  L 673.06 497.19
  L 670.14 507.54
  L 666.56 517.74
  L 662.34 527.75
  L 657.83 536.84
  L 652.88 545.36
  L 649.53 550.48
  L 645.95 555.51
  L 642.14 560.46
  L 638.11 565.32
  L 633.84 570.10
  L 629.35 574.79
  L 624.62 579.40
  L 619.67 583.92
  L 612.20 590.13
  L 604.39 595.85
  L 595.73 601.39
  L 586.70 606.38
  L 577.29 610.82
  L 567.50 614.71
  L 557.46 618.00
  L 547.58 620.57
  L 537.84 622.40
  L 528.25 623.50
  L 518.86 624.02
  L 509.56 624.12
  L 500.35 623.81
  L 491.24 623.07
  L 485.54 622.23
  L 477.32 620.64
  L 470.07 618.97
  L 463.71 617.12
  L 454.44 613.83
  L 445.55 610.19
  L 437.03 606.17
  L 428.89 601.80
  L 421.99 597.56
  L 415.08 592.74
  L 408.17 587.36
  L 401.27 581.41
  L 396.32 576.77
  L 391.59 571.99
  L 387.09 567.08
  L 382.83 562.04
  L 378.79 556.87
  L 374.98 551.57
  L 371.39 546.13
  L 368.04 540.57
  L 368.04 540.57
  L 368.04 540.57
  L 363.42 531.92
  L 359.31 522.98
  L 355.73 513.73
  L 352.67 504.19
  L 350.84 497.31
  L 349.30 490.33
  L 348.05 483.25
  L 347.09 476.07
  L 346.42 468.79
  L 346.03 461.41
  L 345.94 453.93
  L 346.14 446.35
  L 346.25 446.11
  L 346.50 446.01
  L 355.49 446.01
  L 355.77 446.26
  L 356.76 455.28
  L 357.43 460.54
  L 358.13 464.19
  L 359.25 468.18
  L 360.56 472.07
  L 362.08 475.86
  L 363.79 479.55
  L 363.79 479.55
  L 363.79 479.55
  L 365.75 483.23
  L 367.93 486.81
  L 370.31 490.29
  L 372.90 493.66
  L 377.51 499.05
  L 382.20 504.01
  L 386.98 508.51
  L 391.84 512.58
  L 399.87 518.48
  L 408.63 524.16
  L 409.63 524.67
  L 410.15 524.67
  L 410.15 524.67
  L 410.16 524.16
  L 409.69 523.14
  L 407.07 519.38
  L 404.63 515.58
  L 400.80 508.72
  L 397.41 501.74
  L 394.44 494.62
  L 391.91 487.37
  L 389.58 478.69
  L 387.95 469.70
  L 387.03 460.39
  L 386.83 450.76
  L 387.05 416.02
  L 386.93 414.00
  L 386.57 412.13
  L 385.97 410.41
  L 385.13 408.84
  L 383.51 406.86
  L 365.77 389.29
  L 365.10 388.38
  L 364.88 387.48
  L 364.88 387.48
  L 365.11 386.58
  L 365.78 385.69
  L 372.01 379.45
  L 372.34 379.28
  L 372.87 379.45
  L 395.03 401.47
  L 396.62 403.41
  L 397.65 405.41
  L 397.96 406.70
  L 398.16 408.56
  L 398.22 414.00
  L 398.00 426.78
  L 397.98 440.49
  L 398.16 440.82
  L 398.53 440.85
  L 398.65 440.77
  L 412.66 426.89
  L 419.50 419.28
  L 426.45 411.73
  L 426.83 411.42
  L 427.28 411.25
  L 429.88 410.81
  L 432.18 410.80
  L 434.03 411.22
  L 435.47 412.04
  L 437.91 414.34
  L 448.84 426.49
  L 449.39 426.75
  L 449.97 426.54
  L 449.98 426.53
  L 454.37 422.13
  L 467.68 408.36
  L 481.11 394.11
  L 482.56 392.56
  L 496.03 378.12
  L 504.94 368.23
  L 507.05 366.28
  L 508.12 365.64
  L 509.20 365.21
  L 510.74 364.86
  L 512.22 364.73
  L 513.63 364.82
  L 514.97 365.13
  L 514.97 365.13
  L 514.97 365.13
  L 516.29 365.67
  L 517.54 366.45
  L 523.00 372.22
  L 547.26 398.44
  L 559.34 411.01
  L 573.51 426.12
  L 574.05 426.56
  L 574.57 426.67
  L 574.57 426.67
  L 574.57 426.67
  L 575.05 426.46
  L 575.51 425.93
  L 576.97 423.73
  L 581.09 419.30
  L 587.62 413.00
  L 589.05 411.81
  L 590.32 411.02
  L 592.14 410.27
  L 593.58 409.96
  L 594.54 410.08
  L 595.65 410.56
  L 598.28 412.61
  L 605.08 419.49
  L 613.51 428.73
  L 620.49 435.99
  L 622.00 437.69
  L 623.68 439.97
  L 624.44 441.04
  L 625.14 441.83
  L 625.64 442.00
  L 625.64 442.00
  L 625.94 441.56
  L 626.04 440.51
  L 625.89 409.26
  L 626.14 406.33
  L 626.61 405.23
  L 627.62 403.87
  L 633.01 397.82
  L 638.73 391.74
  L 644.77 385.63
  L 651.14 379.49
  L 651.55 379.33
  L 651.96 379.49
  L 659.19 386.30
  L 659.51 386.75
  L 659.63 387.29
  L 659.54 387.83
  L 659.24 388.29
  L 659.24 388.29
  L 659.22 388.31
  L 640.63 406.88
  L 639.54 408.17
  L 638.71 409.58
  L 638.02 411.68
  L 637.80 414.01
  L 638.07 446.25
  L 637.87 451.37
  L 637.22 460.10
  L 636.23 468.67
  L 634.71 477.04
  L 632.66 485.22
  L 630.07 493.21
  L 630.07 493.21
  L 626.63 501.73
  L 622.55 510.03
  L 619.82 514.70
  L 615.88 520.67
  L 613.38 524.40
  L 613.24 524.81
  L 613.67 524.75
  Z
  M 481.71 512.73
  L 480.71 512.92
  L 479.82 512.41
  L 472.02 504.55
  L 471.34 504.05
  L 470.75 503.96
  L 470.75 503.96
  L 470.12 504.45
  L 469.94 505.05
  L 469.94 528.82
  L 470.28 529.64
  L 471.10 529.98
  L 505.02 529.98
  L 505.73 529.68
  L 506.03 528.97
  L 506.04 491.50
  L 505.85 489.62
  L 505.06 487.73
  L 503.34 485.38
  L 496.44 477.87
  L 487.68 469.27
  L 487.23 468.70
  L 487.06 468.13
  L 487.06 468.13
  L 487.18 467.53
  L 487.58 466.93
  L 490.11 464.30
  L 492.94 461.69
  L 493.84 461.10
  L 494.74 460.90
  L 494.74 460.90
  L 494.74 460.90
  L 496.01 461.26
  L 497.29 462.38
  L 500.43 465.67
  L 503.48 468.13
  L 504.51 469.11
  L 505.19 469.81
  L 505.31 469.89
  L 505.70 469.86
  L 505.91 469.52
  L 506.09 465.15
  L 506.04 460.75
  L 505.72 458.36
  L 505.40 457.55
  L 504.98 457.00
  L 500.93 453.16
  L 497.61 449.60
  L 495.54 447.44
  L 492.54 444.73
  L 487.60 440.06
  L 487.11 439.33
  L 486.96 438.62
  L 486.96 438.62
  L 487.17 437.93
  L 487.73 437.25
  L 494.15 431.38
  L 495.04 430.98
  L 495.92 431.41
  L 503.27 438.73
  L 504.24 439.68
  L 504.96 440.00
  L 505.49 439.95
  L 505.49 439.95
  L 505.86 439.46
  L 505.99 438.51
  L 506.11 415.41
  L 506.22 414.89
  L 506.51 414.45
  L 506.95 414.16
  L 507.46 414.06
  L 517.26 414.06
  L 517.79 414.24
  L 517.96 414.76
  L 518.04 440.42
  L 518.17 440.76
  L 518.57 440.71
  L 519.07 440.31
  L 527.84 431.65
  L 528.59 431.15
  L 529.48 430.97
  L 530.37 431.15
  L 531.12 431.65
  L 536.79 437.32
  L 537.14 437.85
  L 537.27 438.47
  L 537.14 439.08
  L 536.79 439.61
  L 536.79 439.61
  L 519.84 456.57
  L 518.99 457.59
  L 518.39 458.71
  L 518.05 459.88
  L 517.94 461.14
  L 517.94 468.52
  L 518.06 469.54
  L 518.43 470.03
  L 518.43 470.03
  L 519.04 469.98
  L 519.89 469.40
  L 530.01 460.51
  L 530.57 460.31
  L 531.11 460.54
  L 537.64 467.06
  L 538.01 467.95
  L 537.64 468.83
  L 519.34 487.12
  L 518.33 488.63
  L 517.98 490.40
  L 517.98 528.84
  L 518.33 529.67
  L 519.16 530.02
  L 553.48 530.02
  L 554.50 529.66
  L 555.07 528.73
  L 555.19 527.70
  L 555.08 526.71
  L 555.08 526.71
  L 554.59 525.47
  L 553.70 524.32
  L 551.12 522.05
  L 548.68 519.75
  L 530.39 500.86
  L 530.23 500.47
  L 530.39 500.09
  L 537.11 493.37
  L 537.85 492.99
  L 538.64 493.27
  L 545.43 498.96
  L 551.65 505.18
  L 551.65 505.18
  L 553.95 507.78
  L 554.50 507.99
  L 554.97 507.65
  L 555.03 507.39
  L 555.03 463.08
  L 555.21 462.49
  L 555.59 462.14
  L 556.10 462.01
  L 566.02 462.01
  L 566.02 462.01
  L 566.67 462.28
  L 566.94 462.94
  L 566.94 508.02
  L 567.01 508.37
  L 567.27 508.75
  L 567.68 508.96
  L 568.14 508.95
  L 568.55 508.73
  L 585.53 493.21
  L 586.05 493.01
  L 586.56 493.22
  L 593.63 499.88
  L 593.86 500.41
  L 593.65 500.94
  L 593.65 500.94
  L 593.64 500.95
  L 585.97 508.58
  L 577.71 516.25
  L 569.67 523.66
  L 568.13 525.41
  L 567.01 527.26
  L 566.74 528.12
  L 566.82 528.85
  L 566.82 528.85
  L 567.19 529.41
  L 567.85 529.87
  L 569.50 530.05
  L 591.25 530.17
  L 593.20 529.90
  L 594.60 529.07
  L 594.93 528.69
  L 599.29 523.07
  L 604.08 516.86
  L 608.44 510.38
  L 608.44 510.38
  L 608.44 510.38
  L 612.51 503.33
  L 616.11 496.00
  L 619.24 488.37
  L 621.90 480.44
  L 623.06 476.18
  L 623.99 471.89
  L 624.69 467.59
  L 625.16 463.27
  L 625.37 459.62
  L 625.32 459.17
  L 625.12 458.71
  L 624.71 458.06
  L 623.37 456.04
  L 622.18 454.65
  L 614.76 447.17
  L 607.60 439.40
  L 602.95 434.35
  L 597.88 429.18
  L 595.76 426.69
  L 595.06 425.78
  L 594.23 425.09
  L 594.23 425.09
  L 594.15 425.04
  L 593.15 424.83
  L 592.23 425.28
  L 583.06 434.45
  L 582.85 434.85
  L 583.00 435.29
  L 583.94 436.60
  L 586.75 440.18
  L 597.75 451.25
  L 598.06 452.01
  L 597.75 452.77
  L 590.93 459.59
  L 590.59 459.77
  L 590.23 459.67
  L 588.59 458.59
  L 587.49 457.66
  L 556.19 424.68
  L 520.61 386.87
  L 514.72 380.20
  L 513.65 379.27
  L 512.57 378.94
  L 512.57 378.94
  L 511.47 379.22
  L 510.36 380.08
  L 497.84 393.33
  L 473.57 418.81
  L 460.11 432.86
  L 447.15 446.41
  L 433.86 459.64
  L 433.49 459.79
  L 433.13 459.64
  L 426.50 453.01
  L 426.12 452.50
  L 425.99 451.99
  L 425.99 451.99
  L 426.12 451.48
  L 426.50 450.98
  L 439.99 437.48
  L 440.61 436.56
  L 440.82 435.47
  L 440.61 434.38
  L 439.99 433.46
  L 431.94 425.41
  L 431.48 425.10
  L 430.93 425.00
  L 430.39 425.11
  L 429.94 425.42
  L 429.92 425.44
  L 398.96 458.32
  L 398.69 458.74
  L 398.60 459.28
  L 398.97 464.97
  L 399.79 470.75
  L 401.04 476.61
  L 402.73 482.55
  L 405.63 490.65
  L 409.13 498.63
  L 413.24 506.47
  L 417.96 514.18
  L 420.22 517.42
  L 422.81 520.78
  L 428.99 527.85
  L 430.08 528.86
  L 431.18 529.52
  L 432.48 529.93
  L 434.04 530.07
  L 440.45 530.12
  L 444.24 529.90
  L 448.10 529.49
  L 451.95 529.34
  L 453.98 529.23
  L 455.11 529.19
  L 455.99 529.40
  L 456.62 529.53
  L 457.24 529.38
  L 457.74 528.97
  L 458.01 528.39
  L 458.04 528.08
  L 458.04 503.96
  L 458.00 503.72
  L 457.53 503.31
  L 456.93 503.47
  L 446.51 513.00
  L 446.10 513.16
  L 445.69 513.01
  L 442.61 510.16
  L 438.87 506.38
  L 438.21 505.47
  L 437.99 504.56
  L 437.99 504.56
  L 438.18 503.68
  L 438.78 502.80
  L 443.02 498.38
  L 446.61 495.23
  L 449.00 492.74
  L 450.66 490.88
  L 450.77 490.68
  L 450.71 490.38
  L 450.44 490.22
  L 449.86 490.12
  L 449.86 490.12
  L 447.69 489.36
  L 445.64 487.98
  L 440.71 483.98
  L 440.04 483.25
  L 439.79 482.51
  L 439.96 481.73
  L 440.55 480.94
  L 463.09 458.40
  L 463.44 458.22
  L 463.80 458.37
  L 470.16 463.97
  L 476.17 469.56
  L 481.81 475.14
  L 487.10 480.71
  L 487.89 481.87
  L 488.06 482.94
  L 488.06 482.94
  L 487.74 483.74
  L 487.02 484.49
  L 480.96 488.95
  L 479.85 489.58
  L 478.64 489.94
  L 477.51 489.99
  L 476.43 489.70
  L 475.33 488.94
  L 473.60 487.33
  L 473.56 487.32
  L 473.30 487.38
  L 473.14 487.48
  L 473.22 487.64
  L 489.65 504.07
  L 489.87 504.49
  L 489.65 504.91
  L 486.44 508.15
  L 483.50 511.45
  L 481.71 512.73
  Z
  M 526.63 572.72
  L 526.62 572.39
  L 526.40 572.14
  L 526.16 572.02
  L 523.39 570.70
  L 521.22 570.04
  L 509.83 568.02
  L 493.88 565.54
  L 480.82 563.29
  L 468.00 560.43
  L 455.43 556.97
  L 443.10 552.90
  L 433.30 549.08
  L 420.47 543.55
  L 409.95 538.51
  L 400.00 532.98
  L 390.61 526.96
  L 381.79 520.46
  L 377.31 516.60
  L 371.48 510.95
  L 367.28 506.83
  L 366.48 506.19
  L 366.04 506.09
  L 366.04 506.09
  L 365.94 506.54
  L 366.19 507.53
  L 368.75 514.57
  L 371.65 521.46
  L 371.65 521.46
  L 376.30 530.88
  L 381.62 540.00
  L 387.62 548.81
  L 394.28 557.32
  L 394.83 557.78
  L 395.50 558.03
  L 396.22 558.04
  L 396.89 557.80
  L 400.95 555.85
  L 404.96 554.56
  L 408.89 553.93
  L 412.77 553.97
  L 412.77 553.97
  L 412.77 553.97
  L 415.17 554.33
  L 417.55 554.96
  L 419.91 555.85
  L 422.24 557.00
  L 424.18 558.19
  L 425.98 559.55
  L 425.98 559.55
  L 427.65 561.08
  L 429.17 562.76
  L 430.56 564.61
  L 431.81 566.63
  L 432.91 568.82
  L 433.79 571.08
  L 434.41 573.29
  L 434.83 575.56
  L 435.05 577.91
  L 435.07 580.32
  L 435.36 580.92
  L 436.01 581.03
  L 436.23 580.92
  L 439.50 578.74
  L 442.95 576.95
  L 446.23 575.73
  L 449.32 575.06
  L 452.34 574.82
  L 455.28 574.89
  L 458.13 575.24
  L 460.89 575.90
  L 460.89 575.90
  L 464.91 577.46
  L 468.73 579.70
  L 470.98 581.44
  L 472.94 583.33
  L 474.62 585.37
  L 476.02 587.58
  L 476.02 587.58
  L 477.63 591.31
  L 478.56 595.41
  L 478.74 596.02
  L 479.06 596.40
  L 479.06 596.40
  L 479.06 596.40
  L 479.55 596.54
  L 480.19 596.44
  L 487.12 594.09
  L 499.96 588.60
  L 513.86 582.09
  L 519.29 579.14
  L 524.62 575.62
  L 525.79 574.41
  L 526.63 572.72
  Z
  M 657.37 506.25
  L 657.26 506.62
  L 657.43 506.87
  L 657.81 506.77
  L 657.83 506.72
  L 657.83 506.36
  L 657.68 506.17
  L 657.44 506.18
  L 657.44 506.18
  L 657.37 506.25
  Z
  M 542.34 608.33
  L 542.18 608.76
  L 542.43 609.04
  L 542.84 609.09
  L 553.54 606.32
  L 564.45 603.09
  L 567.73 601.92
  L 572.34 599.95
  L 575.74 598.48
  L 582.79 595.14
  L 589.37 591.24
  L 589.59 590.94
  L 589.59 590.57
  L 588.74 587.70
  L 588.16 584.83
  L 587.86 581.98
  L 587.85 579.15
  L 588.08 576.53
  L 588.54 573.93
  L 589.25 571.34
  L 590.19 568.76
  L 591.86 565.80
  L 594.85 562.06
  L 595.98 560.73
  L 597.78 559.03
  L 600.20 557.46
  L 603.29 556.01
  L 606.76 554.81
  L 609.89 554.13
  L 613.01 553.93
  L 613.01 553.93
  L 615.36 554.10
  L 617.71 554.54
  L 620.06 555.26
  L 622.40 556.25
  L 626.83 558.19
  L 627.70 558.15
  L 628.71 557.59
  L 629.77 556.75
  L 632.03 554.27
  L 636.97 547.63
  L 641.34 541.27
  L 645.11 535.16
  L 648.31 529.33
  L 652.66 519.78
  L 656.82 510.11
  L 657.26 508.84
  L 657.19 508.25
  L 657.19 508.25
  L 657.19 508.25
  L 656.61 508.35
  L 655.52 509.13
  L 653.38 510.84
  L 650.45 513.28
  L 643.31 519.58
  L 635.58 525.50
  L 627.25 531.04
  L 618.33 536.20
  L 609.99 540.33
  L 600.18 544.54
  L 578.99 553.28
  L 573.93 555.65
  L 569.19 558.45
  L 566.56 560.30
  L 564.48 562.12
  L 563.01 563.80
  L 561.73 565.69
  L 560.65 567.76
  L 559.76 570.02
  L 559.35 571.64
  L 559.08 573.72
  L 558.86 579.54
  L 558.85 580.19
  L 558.64 584.67
  L 558.10 587.78
  L 557.03 590.90
  L 555.75 593.65
  L 554.23 596.02
  L 552.50 598.01
  L 545.62 604.85
  L 542.34 608.33
  Z
  M 573.57 542.33
  L 572.43 542.02
  L 570.00 541.93
  L 467.11 542.10
  L 459.89 542.00
  L 451.12 542.23
  L 450.00 542.50
  L 451.02 543.05
  L 465.51 547.33
  L 465.51 547.33
  L 465.51 547.33
  L 473.05 549.23
  L 480.65 550.93
  L 488.30 552.42
  L 496.00 553.71
  L 520.17 557.43
  L 526.08 558.76
  L 528.65 559.60
  L 530.96 560.57
  L 533.38 561.91
  L 535.37 563.44
  L 536.92 565.16
  L 538.03 567.08
  L 538.03 567.08
  L 538.03 567.08
  L 538.62 568.80
  L 538.91 570.64
  L 538.91 572.61
  L 538.62 574.71
  L 537.80 577.32
  L 536.41 579.86
  L 534.50 582.19
  L 532.10 584.35
  L 527.92 587.48
  L 525.22 589.23
  L 513.46 595.70
  L 485.32 607.66
  L 484.22 608.12
  L 483.28 608.62
  L 482.99 609.04
  L 483.36 609.38
  L 484.40 609.65
  L 497.27 611.51
  L 501.77 611.93
  L 506.03 612.12
  L 510.06 612.07
  L 513.84 611.80
  L 514.29 611.69
  L 514.74 611.44
  L 523.71 604.95
  L 534.75 597.51
  L 535.25 597.18
  L 535.25 597.18
  L 537.76 595.35
  L 540.14 593.35
  L 542.41 591.18
  L 544.55 588.82
  L 545.53 587.52
  L 546.27 586.19
  L 546.78 584.83
  L 547.06 583.44
  L 547.11 582.51
  L 547.31 573.74
  L 547.80 570.28
  L 548.58 566.97
  L 549.66 563.81
  L 551.02 560.81
  L 551.02 560.81
  L 552.60 558.07
  L 554.45 555.47
  L 556.56 553.01
  L 558.94 550.68
  L 560.52 549.50
  L 563.10 547.92
  L 571.27 543.50
  L 573.13 542.98
  L 573.77 542.66
  L 573.57 542.33
  Z
  M 421.89 583.01
  L 422.25 583.13
  L 422.59 582.94
  L 422.89 582.44
  L 423.02 581.79
  L 423.04 578.58
  L 422.61 575.73
  L 421.74 573.21
  L 420.41 571.04
  L 420.41 571.04
  L 420.41 571.04
  L 419.08 569.60
  L 417.47 568.36
  L 415.60 567.33
  L 413.45 566.51
  L 411.15 566.08
  L 408.67 566.28
  L 405.61 567.19
  L 405.42 567.28
  L 404.97 567.98
  L 405.24 568.77
  L 408.73 572.18
  L 412.66 575.69
  L 417.05 579.30
  L 421.89 583.01
  Z
  M 605.29 580.81
  L 615.34 572.08
  L 618.55 568.89
  L 618.60 568.81
  L 618.66 568.32
  L 618.31 567.95
  L 616.45 567.36
  L 614.38 567.01
  L 612.10 566.87
  L 609.62 566.97
  L 608.31 567.19
  L 607.06 567.63
  L 605.80 568.30
  L 604.65 569.16
  L 602.61 571.45
  L 601.22 574.14
  L 600.39 577.00
  L 600.00 579.88
  L 600.00 579.88
  L 599.98 582.00
  L 600.12 582.52
  L 600.47 582.93
  L 600.96 583.16
  L 601.50 583.15
  L 601.72 583.07
  L 603.64 582.04
  L 605.29 580.81
  Z
  M 440.21 593.33
  L 440.11 593.45
  L 439.99 594.23
  L 440.50 594.82
  L 455.64 601.52
  L 458.53 602.57
  L 460.58 602.85
  L 462.83 602.41
  L 464.86 601.50
  L 466.22 600.34
  L 466.89 598.99
  L 466.91 597.55
  L 466.73 596.76
  L 465.79 594.32
  L 464.39 592.17
  L 462.52 590.27
  L 460.31 588.76
  L 457.86 587.69
  L 455.23 587.11
  L 452.63 587.04
  L 450.03 587.51
  L 447.92 588.22
  L 445.95 589.10
  L 444.10 590.15
  L 442.38 591.36
  L 442.38 591.36
  L 440.21 593.33
  Z"
/>
<path fill="#008000" d="
  M 507.23 697.03
  L 501.07 697.09
  L 497.56 696.85
  L 493.69 695.88
  L 493.20 695.52
  L 493.01 694.94
  L 493.01 685.84
  L 493.23 685.30
  L 493.77 685.08
  L 518.30 685.08
  L 518.91 685.19
  L 519.43 685.52
  L 519.81 686.01
  L 519.98 686.61
  L 520.16 690.33
  L 520.16 690.33
  L 519.80 695.30
  L 518.75 700.26
  L 518.18 701.98
  L 518.18 701.98
  L 516.95 704.60
  L 515.30 707.06
  L 513.12 709.55
  L 510.71 711.72
  L 508.09 713.55
  L 505.27 715.02
  L 503.12 715.87
  L 500.89 716.51
  L 498.57 716.96
  L 496.18 717.20
  L 493.29 717.23
  L 490.51 716.98
  L 487.83 716.45
  L 485.26 715.65
  L 485.26 715.65
  L 482.14 714.24
  L 479.19 712.39
  L 477.06 710.71
  L 475.13 708.90
  L 473.41 706.95
  L 471.89 704.86
  L 471.89 704.86
  L 470.20 701.91
  L 468.86 698.73
  L 468.04 695.97
  L 467.51 693.17
  L 467.51 693.17
  L 467.51 693.17
  L 467.26 690.11
  L 467.36 687.00
  L 467.79 683.84
  L 468.56 680.64
  L 469.81 677.07
  L 471.40 673.82
  L 473.31 670.90
  L 475.55 668.30
  L 475.55 668.30
  L 475.55 668.30
  L 475.55 668.30
  L 477.61 666.44
  L 479.88 664.80
  L 482.37 663.37
  L 485.07 662.15
  L 487.81 661.21
  L 490.54 660.57
  L 493.27 660.22
  L 495.98 660.17
  L 495.98 660.17
  L 495.98 660.17
  L 499.02 660.47
  L 502.06 661.15
  L 506.55 662.78
  L 510.65 665.01
  L 510.65 665.01
  L 514.25 667.71
  L 517.49 670.97
  L 517.66 671.48
  L 517.43 671.96
  L 509.94 678.81
  L 509.08 679.13
  L 508.25 678.76
  L 505.09 675.61
  L 503.77 674.51
  L 502.33 673.60
  L 500.72 672.85
  L 499.03 672.29
  L 497.24 671.93
  L 495.42 671.78
  L 493.60 671.84
  L 491.81 672.09
  L 489.40 672.77
  L 487.21 673.82
  L 487.21 673.82
  L 485.66 674.87
  L 484.24 676.14
  L 482.95 677.63
  L 481.78 679.33
  L 480.70 681.32
  L 479.89 683.33
  L 479.34 685.36
  L 479.05 687.41
  L 479.03 689.48
  L 479.27 691.57
  L 479.77 693.68
  L 480.53 695.81
  L 481.85 698.35
  L 483.54 700.53
  L 483.54 700.53
  L 485.14 702.00
  L 486.97 703.26
  L 489.03 704.30
  L 491.32 705.12
  L 492.84 705.47
  L 494.37 705.62
  L 496.56 705.47
  L 498.77 704.91
  L 501.60 703.75
  L 503.88 702.42
  L 505.65 700.90
  L 506.93 699.18
  L 507.63 697.66
  L 507.63 697.21
  L 507.23 697.03
  Z"
/>
<path fill="#008000" d="
  M 347.45 715.97
  L 342.61 715.91
  L 342.10 715.72
  L 341.95 715.20
  L 342.04 706.84
  L 341.81 698.04
  L 341.55 695.94
  L 340.98 693.73
  L 340.08 691.40
  L 338.86 688.95
  L 325.02 662.72
  L 324.75 661.97
  L 324.83 661.44
  L 324.83 661.44
  L 325.27 661.12
  L 326.06 661.01
  L 335.60 661.01
  L 336.64 661.30
  L 337.36 662.09
  L 347.11 680.74
  L 347.35 680.96
  L 347.40 680.97
  L 347.45 680.96
  L 347.69 680.74
  L 357.39 662.06
  L 358.11 661.27
  L 359.15 660.98
  L 368.69 660.95
  L 369.48 661.06
  L 369.91 661.38
  L 369.91 661.38
  L 370.00 661.91
  L 369.73 662.66
  L 355.96 688.93
  L 354.75 691.38
  L 353.86 693.71
  L 353.29 695.93
  L 353.04 698.03
  L 352.82 706.82
  L 352.94 715.19
  L 352.79 715.70
  L 352.28 715.89
  L 347.45 715.97
  Z"
/>
<path fill="#008000" d="
  M 440.02 699.02
  L 439.14 697.94
  L 438.50 697.69
  L 438.50 697.69
  L 438.50 697.69
  L 438.13 698.25
  L 438.00 699.64
  L 438.00 714.70
  L 437.92 715.26
  L 437.68 715.67
  L 437.68 715.67
  L 437.27 715.91
  L 436.71 715.99
  L 428.01 715.99
  L 427.61 715.90
  L 427.21 715.55
  L 427.06 715.04
  L 427.06 661.95
  L 427.32 661.30
  L 427.95 661.01
  L 437.70 660.85
  L 446.70 661.33
  L 449.64 661.79
  L 452.29 662.60
  L 454.65 663.74
  L 456.70 665.23
  L 458.12 666.65
  L 459.36 668.29
  L 460.41 670.14
  L 461.27 672.20
  L 461.76 673.97
  L 462.06 675.99
  L 462.10 680.81
  L 461.83 683.18
  L 461.31 685.30
  L 460.54 687.16
  L 459.53 688.76
  L 457.08 691.50
  L 454.31 693.78
  L 454.31 693.78
  L 452.69 694.81
  L 452.67 694.82
  L 452.37 695.19
  L 452.30 695.77
  L 452.79 697.15
  L 464.52 715.16
  L 464.56 715.28
  L 464.17 715.75
  L 463.19 715.97
  L 452.33 716.03
  L 451.62 715.86
  L 451.08 715.38
  L 440.02 699.02
  Z
  M 437.89 673.31
  L 438.01 684.63
  L 438.19 685.28
  L 438.66 685.77
  L 439.36 685.95
  L 442.05 685.93
  L 443.84 685.78
  L 445.55 685.38
  L 447.12 684.75
  L 448.50 683.90
  L 449.63 682.88
  L 450.46 681.71
  L 450.97 680.46
  L 451.13 679.15
  L 451.13 678.51
  L 450.94 677.21
  L 450.40 675.96
  L 449.55 674.82
  L 448.40 673.82
  L 447.00 673.00
  L 445.41 672.40
  L 443.69 672.04
  L 441.91 671.93
  L 439.22 671.96
  L 438.71 672.06
  L 438.27 672.36
  L 437.99 672.80
  L 437.89 673.31
  Z"
/>
<path fill="#008000" d="
  M 555.49 708.59
  L 555.19 707.89
  L 554.73 707.39
  L 554.12 707.10
  L 553.35 707.01
  L 544.43 706.86
  L 542.10 706.53
  L 540.34 706.48
  L 540.34 706.48
  L 538.61 706.84
  L 536.92 707.60
  L 536.51 708.10
  L 534.04 715.03
  L 533.73 715.50
  L 533.25 715.78
  L 530.83 716.36
  L 528.48 716.63
  L 526.20 716.60
  L 523.98 716.27
  L 523.98 716.27
  L 522.29 715.79
  L 521.95 715.54
  L 521.96 715.10
  L 540.78 662.20
  L 541.47 661.29
  L 542.56 660.94
  L 549.63 660.94
  L 550.62 661.25
  L 551.24 662.07
  L 559.76 686.27
  L 567.62 709.45
  L 569.10 715.19
  L 569.01 715.76
  L 568.47 715.95
  L 558.97 715.95
  L 557.89 715.59
  L 557.24 714.65
  L 555.49 708.59
  Z
  M 549.96 695.51
  L 550.18 695.67
  L 550.44 695.69
  L 550.45 695.43
  L 546.63 682.20
  L 546.22 681.79
  L 545.66 681.93
  L 545.51 682.16
  L 541.12 694.51
  L 541.19 695.40
  L 541.90 695.95
  L 541.90 695.95
  L 542.01 695.97
  L 544.15 696.16
  L 546.13 696.12
  L 547.95 695.86
  L 549.60 695.39
  L 549.79 695.38
  L 549.96 695.51
  Z"
/>
<path fill="#008000" d="
  M 618.96 662.02
  L 619.19 661.38
  L 619.95 661.02
  L 634.35 660.95
  L 636.95 661.06
  L 639.52 661.42
  L 642.05 662.02
  L 644.51 662.86
  L 646.87 663.94
  L 649.11 665.23
  L 651.21 666.73
  L 653.14 668.42
  L 654.90 670.29
  L 656.46 672.32
  L 657.81 674.49
  L 658.94 676.78
  L 659.83 679.16
  L 660.47 681.62
  L 660.87 684.13
  L 661.01 686.66
  L 661.03 690.14
  L 660.91 692.67
  L 660.55 695.19
  L 659.93 697.65
  L 659.06 700.04
  L 657.96 702.34
  L 656.63 704.52
  L 655.09 706.57
  L 653.35 708.46
  L 651.43 710.17
  L 649.35 711.70
  L 647.12 713.01
  L 644.78 714.11
  L 642.33 714.98
  L 639.81 715.60
  L 637.23 715.99
  L 634.63 716.13
  L 620.23 716.20
  L 619.72 716.06
  L 619.37 715.70
  L 619.24 715.22
  L 618.96 662.02
  Z
  M 629.91 674.40
  L 630.05 702.70
  L 630.17 703.27
  L 630.49 703.76
  L 630.49 703.76
  L 630.99 704.09
  L 631.57 704.20
  L 635.59 704.18
  L 638.44 703.87
  L 641.17 702.97
  L 643.68 701.52
  L 645.88 699.58
  L 647.69 697.21
  L 649.02 694.52
  L 649.84 691.60
  L 650.10 688.57
  L 650.10 688.33
  L 649.80 685.30
  L 648.96 682.39
  L 647.60 679.71
  L 645.77 677.36
  L 643.55 675.44
  L 641.02 674.02
  L 638.28 673.15
  L 635.43 672.86
  L 635.43 672.86
  L 635.43 672.86
  L 631.41 672.88
  L 631.20 672.90
  L 630.27 673.41
  L 629.91 674.40
  Z"
/>
<path fill="#008000" d="
  M 299.30 660.88
  L 302.09 660.98
  L 303.66 661.25
  L 304.27 661.58
  L 304.60 662.02
  L 304.60 662.02
  L 304.60 662.03
  L 323.12 715.33
  L 323.08 715.76
  L 322.73 716.00
  L 322.64 716.01
  L 312.33 716.01
  L 311.54 715.79
  L 310.86 714.96
  L 308.53 708.27
  L 307.96 707.44
  L 306.99 707.13
  L 299.16 706.94
  L 291.33 707.08
  L 290.37 707.39
  L 289.79 708.22
  L 287.42 714.89
  L 286.85 715.65
  L 285.95 715.93
  L 275.64 715.88
  L 275.55 715.87
  L 275.20 715.62
  L 275.16 715.19
  L 293.99 662.00
  L 293.99 661.99
  L 293.99 661.99
  L 294.32 661.55
  L 294.93 661.22
  L 296.50 660.96
  L 299.30 660.88
  Z
  M 303.77 693.65
  L 299.97 682.73
  L 299.83 682.49
  L 299.19 682.25
  L 298.63 682.64
  L 297.53 685.04
  L 296.58 687.68
  L 295.77 690.56
  L 295.11 693.69
  L 295.23 694.40
  L 295.77 694.87
  L 299.20 695.85
  L 302.23 696.01
  L 302.45 695.98
  L 303.14 695.67
  L 303.64 695.11
  L 303.86 694.40
  L 303.77 693.65
  Z"
/>
<path fill="#008000" d="
  M 404.10 703.35
  L 405.00 702.27
  L 405.63 700.59
  L 405.97 698.37
  L 406.07 695.51
  L 406.07 662.00
  L 406.31 661.31
  L 407.00 661.08
  L 416.39 661.08
  L 417.37 661.39
  L 417.77 662.35
  L 417.88 668.26
  L 416.85 702.77
  L 416.69 704.26
  L 416.34 705.69
  L 415.14 708.20
  L 413.24 710.49
  L 410.48 712.99
  L 408.04 714.77
  L 405.78 715.97
  L 403.57 716.64
  L 399.85 717.14
  L 396.28 717.23
  L 392.88 716.90
  L 389.63 716.17
  L 387.18 715.12
  L 384.76 713.43
  L 382.33 711.07
  L 380.07 708.21
  L 379.35 707.02
  L 378.66 705.32
  L 378.21 703.33
  L 378.00 700.98
  L 377.97 697.62
  L 377.98 696.00
  L 378.12 661.88
  L 378.34 661.23
  L 378.99 661.02
  L 388.41 661.02
  L 388.77 661.17
  L 388.92 661.53
  L 388.89 697.51
  L 389.04 699.12
  L 389.53 700.97
  L 390.02 702.04
  L 390.68 702.93
  L 391.52 703.70
  L 392.88 704.60
  L 394.24 705.27
  L 395.63 705.70
  L 397.02 705.89
  L 397.02 705.89
  L 397.02 705.89
  L 398.76 705.80
  L 400.52 705.35
  L 402.30 704.53
  L 404.10 703.35
  Z"
/>
<path fill="#008000" d="
  M 588.21 697.95
  L 587.36 698.17
  L 587.36 698.17
  L 587.01 698.69
  L 586.91 699.51
  L 587.11 715.03
  L 586.84 715.68
  L 586.19 715.95
  L 576.76 715.95
  L 576.24 715.73
  L 576.02 715.21
  L 576.02 662.18
  L 576.29 661.35
  L 577.10 661.05
  L 585.88 660.93
  L 595.27 661.12
  L 597.35 661.30
  L 599.31 661.70
  L 601.15 662.32
  L 602.87 663.15
  L 602.87 663.15
  L 604.84 664.48
  L 606.63 666.16
  L 608.22 668.17
  L 609.62 670.51
  L 610.33 672.23
  L 610.77 674.23
  L 610.97 676.56
  L 610.97 679.83
  L 610.95 681.52
  L 610.68 683.98
  L 610.24 685.50
  L 609.62 686.93
  L 607.77 689.71
  L 605.05 692.42
  L 601.44 695.08
  L 601.03 695.69
  L 601.19 696.41
  L 601.19 696.41
  L 601.21 696.44
  L 604.71 701.11
  L 607.95 705.81
  L 610.95 710.51
  L 613.70 715.24
  L 613.75 715.37
  L 613.65 715.85
  L 613.20 716.07
  L 602.28 716.07
  L 601.33 715.84
  L 600.60 715.19
  L 588.84 698.30
  L 588.21 697.95
  Z
  M 586.86 673.85
  L 587.13 684.11
  L 587.28 684.81
  L 587.70 685.39
  L 588.30 685.77
  L 589.00 685.89
  L 592.95 685.79
  L 594.37 685.63
  L 595.73 685.24
  L 596.97 684.63
  L 598.05 683.83
  L 598.93 682.86
  L 599.58 681.77
  L 599.96 680.59
  L 600.07 679.37
  L 600.03 677.91
  L 600.03 677.91
  L 599.86 676.70
  L 599.41 675.54
  L 598.71 674.48
  L 597.78 673.56
  L 596.66 672.82
  L 595.39 672.27
  L 594.01 671.95
  L 592.59 671.87
  L 588.64 671.98
  L 587.98 672.12
  L 587.15 672.81
  L 586.86 673.85
  Z"
/>
<path fill="#008000" d="
  M 681.52 672.01
  L 681.12 672.18
  L 680.95 672.59
  L 680.95 681.98
  L 681.26 682.73
  L 682.01 683.04
  L 694.31 683.04
  L 694.31 683.04
  L 695.00 683.18
  L 695.58 683.57
  L 695.96 684.15
  L 696.10 684.84
  L 696.10 692.97
  L 695.95 693.74
  L 695.51 694.39
  L 694.87 694.83
  L 694.10 694.98
  L 682.20 694.98
  L 681.64 695.06
  L 681.24 695.30
  L 681.24 695.30
  L 681.00 695.70
  L 680.92 696.27
  L 680.92 703.70
  L 681.00 704.26
  L 681.24 704.67
  L 681.65 704.91
  L 682.21 704.99
  L 698.09 704.99
  L 698.72 705.25
  L 698.98 705.88
  L 698.98 715.14
  L 698.73 715.74
  L 698.13 715.99
  L 669.76 715.99
  L 669.19 715.76
  L 668.96 715.19
  L 668.97 702.29
  L 669.24 691.73
  L 669.32 685.96
  L 669.13 678.90
  L 669.03 673.16
  L 669.15 666.03
  L 669.35 664.49
  L 669.45 662.95
  L 669.32 662.16
  L 669.50 661.59
  L 670.04 661.20
  L 670.94 661.07
  L 697.88 661.01
  L 698.73 661.29
  L 699.01 662.14
  L 699.01 670.85
  L 698.67 671.67
  L 697.86 672.01
  L 697.86 672.01
  L 681.52 672.01
  Z"
/>
<path fill="#008000" d="
  M 719.20 685.53
  L 717.87 715.05
  L 717.60 715.77
  L 716.87 716.01
  L 707.89 716.01
  L 707.30 715.77
  L 707.06 715.18
  L 707.06 662.67
  L 707.16 661.95
  L 707.47 661.43
  L 707.47 661.43
  L 707.47 661.43
  L 707.99 661.12
  L 708.71 661.02
  L 717.22 661.02
  L 717.73 661.16
  L 718.11 661.54
  L 735.76 692.11
  L 736.30 692.89
  L 736.68 693.09
  L 736.68 693.09
  L 736.68 693.09
  L 736.91 692.72
  L 736.99 691.79
  L 736.99 661.88
  L 737.21 661.24
  L 737.85 661.02
  L 747.26 661.02
  L 747.78 661.24
  L 748.00 661.76
  L 748.00 715.00
  L 747.75 715.64
  L 747.12 715.94
  L 740.52 716.02
  L 738.98 715.86
  L 738.02 715.50
  L 737.23 714.83
  L 736.45 713.74
  L 731.15 705.06
  L 725.93 696.25
  L 719.49 685.45
  L 719.28 685.26
  L 719.20 685.53
  Z"
/>
<path fill="#60a5fa" d="
  M 376.77 759.10
  L 377.69 758.58
  L 377.69 758.58
  L 378.46 757.44
  L 378.78 755.77
  L 379.20 740.97
  L 379.32 740.22
  L 379.64 739.66
  L 380.26 739.26
  L 381.15 739.11
  L 381.96 739.10
  L 382.72 739.19
  L 383.27 739.50
  L 383.27 739.50
  L 383.27 739.50
  L 383.63 740.04
  L 383.78 740.80
  L 384.05 749.71
  L 383.77 755.97
  L 383.14 758.57
  L 381.83 760.80
  L 380.63 762.00
  L 379.22 762.93
  L 377.56 763.63
  L 375.77 764.04
  L 373.87 764.16
  L 371.94 763.99
  L 370.04 763.54
  L 368.21 762.80
  L 366.74 761.90
  L 365.61 760.83
  L 364.59 759.29
  L 363.86 757.33
  L 363.42 754.90
  L 363.13 751.35
  L 363.12 751.25
  L 363.00 746.66
  L 363.21 741.86
  L 363.35 741.18
  L 363.67 740.65
  L 363.67 740.65
  L 364.26 740.23
  L 365.09 740.02
  L 366.28 739.90
  L 366.97 739.93
  L 367.47 740.17
  L 367.47 740.17
  L 367.79 740.66
  L 367.90 741.39
  L 368.18 754.02
  L 368.61 756.36
  L 369.07 757.31
  L 369.67 758.12
  L 369.67 758.12
  L 369.67 758.12
  L 371.29 759.27
  L 373.49 759.87
  L 374.68 759.73
  L 376.77 759.10
  Z"
/>
<path fill="#60a5fa" d="
  M 624.96 755.67
  L 624.96 741.32
  L 625.04 740.73
  L 625.30 740.31
  L 625.30 740.31
  L 625.71 740.06
  L 626.29 739.98
  L 628.73 739.98
  L 629.29 740.06
  L 629.70 740.30
  L 629.94 740.71
  L 630.02 741.27
  L 629.92 760.51
  L 629.92 760.80
  L 629.81 762.37
  L 629.38 763.32
  L 628.84 763.74
  L 628.02 764.02
  L 626.42 764.05
  L 625.16 763.57
  L 623.91 762.58
  L 622.75 761.14
  L 621.41 758.97
  L 620.15 756.97
  L 615.31 749.93
  L 614.77 749.21
  L 614.37 749.02
  L 614.37 749.02
  L 614.12 749.39
  L 614.03 750.33
  L 613.92 761.52
  L 613.75 762.61
  L 613.28 763.38
  L 613.28 763.38
  L 613.28 763.38
  L 612.57 763.80
  L 611.60 763.95
  L 611.50 763.95
  L 610.47 763.83
  L 609.71 763.40
  L 609.71 763.40
  L 609.23 762.66
  L 609.04 761.61
  L 608.92 753.15
  L 609.09 742.85
  L 609.04 741.65
  L 609.11 740.86
  L 609.40 740.24
  L 609.40 740.24
  L 610.19 739.65
  L 611.42 739.39
  L 612.55 739.74
  L 614.31 740.89
  L 615.24 741.78
  L 616.20 743.05
  L 624.59 755.78
  L 624.87 756.03
  L 624.96 755.67
  Z"
/>
<path fill="#60a5fa" d="
  M 528.84 754.22
  L 528.77 754.36
  L 528.20 756.00
  L 527.93 757.78
  L 527.91 759.92
  L 528.13 762.71
  L 528.11 763.28
  L 527.91 763.69
  L 527.91 763.69
  L 527.91 763.69
  L 527.53 763.93
  L 526.97 764.01
  L 525.39 764.01
  L 524.80 763.93
  L 524.38 763.67
  L 524.12 763.25
  L 524.04 762.66
  L 524.04 741.16
  L 524.12 740.58
  L 524.37 740.17
  L 524.37 740.17
  L 524.79 739.94
  L 525.38 739.88
  L 526.74 739.95
  L 527.65 740.36
  L 528.02 741.29
  L 528.02 748.04
  L 528.07 748.34
  L 528.30 748.71
  L 528.68 748.93
  L 529.13 748.96
  L 529.53 748.78
  L 530.29 748.13
  L 531.37 746.88
  L 532.82 744.73
  L 533.74 743.33
  L 535.33 741.26
  L 536.73 740.16
  L 538.44 739.63
  L 539.91 739.58
  L 541.43 739.87
  L 541.50 739.90
  L 541.84 740.27
  L 541.78 740.78
  L 539.92 743.42
  L 536.49 747.14
  L 533.87 750.47
  L 533.46 751.19
  L 533.40 751.68
  L 533.42 751.74
  L 534.10 752.54
  L 534.96 753.36
  L 542.39 762.23
  L 542.70 762.74
  L 542.73 763.15
  L 542.73 763.15
  L 542.47 763.48
  L 541.93 763.72
  L 540.90 764.02
  L 539.88 764.17
  L 538.86 764.03
  L 537.91 763.62
  L 537.12 762.96
  L 529.10 754.19
  L 529.08 754.17
  L 528.84 754.22
  Z"
/>
<path fill="#60a5fa" d="
  M 639.90 741.71
  L 640.05 740.93
  L 640.49 740.26
  L 641.15 739.81
  L 641.93 739.64
  L 649.12 739.58
  L 651.42 739.79
  L 653.64 740.44
  L 655.69 741.51
  L 657.48 742.96
  L 658.96 744.73
  L 660.07 746.76
  L 660.76 748.96
  L 661.01 751.26
  L 661.01 752.00
  L 660.92 753.54
  L 660.63 755.07
  L 660.15 756.54
  L 659.47 757.93
  L 659.47 757.93
  L 658.62 759.21
  L 657.62 760.37
  L 656.47 761.40
  L 655.20 762.26
  L 653.83 762.95
  L 652.37 763.45
  L 650.87 763.77
  L 649.34 763.88
  L 642.15 763.94
  L 641.46 763.83
  L 640.85 763.50
  L 640.29 762.79
  L 640.08 761.91
  L 639.90 741.71
  Z
  M 643.96 746.08
  L 644.06 757.32
  L 644.24 758.19
  L 644.74 758.92
  L 645.48 759.41
  L 646.35 759.57
  L 649.20 759.55
  L 649.20 759.55
  L 650.56 759.40
  L 651.87 758.98
  L 653.08 758.32
  L 654.13 757.42
  L 654.99 756.34
  L 655.63 755.10
  L 656.01 753.77
  L 656.14 752.38
  L 656.12 750.82
  L 655.98 749.43
  L 655.57 748.10
  L 654.91 746.88
  L 654.03 745.81
  L 652.96 744.93
  L 651.74 744.29
  L 650.43 743.89
  L 649.06 743.77
  L 646.21 743.79
  L 645.35 743.97
  L 644.63 744.46
  L 644.13 745.20
  L 643.96 746.08
  Z"
/>
<path fill="#60a5fa" d="
  M 452.65 758.98
  L 445.02 758.98
  L 444.35 759.17
  L 443.96 759.73
  L 443.01 762.40
  L 442.62 763.10
  L 442.04 763.65
  L 441.31 763.99
  L 440.51 764.08
  L 439.23 764.02
  L 438.53 763.89
  L 438.12 763.57
  L 438.12 763.57
  L 437.97 763.07
  L 438.11 762.37
  L 445.51 741.37
  L 445.76 740.72
  L 446.34 740.37
  L 447.94 739.91
  L 450.19 739.89
  L 450.50 739.90
  L 451.17 740.06
  L 451.69 740.49
  L 452.09 741.17
  L 455.91 751.01
  L 459.76 761.68
  L 459.84 762.29
  L 459.68 762.88
  L 459.30 763.36
  L 458.77 763.66
  L 458.77 763.66
  L 458.73 763.67
  L 458.05 763.87
  L 457.33 763.95
  L 456.62 763.80
  L 456.00 763.42
  L 455.54 762.86
  L 453.63 759.55
  L 453.23 759.13
  L 452.65 758.98
  Z
  M 448.51 746.25
  L 446.18 752.83
  L 446.11 753.42
  L 446.31 753.98
  L 446.73 754.39
  L 447.29 754.58
  L 447.61 754.57
  L 451.23 754.01
  L 451.64 753.80
  L 451.65 753.32
  L 449.19 746.26
  L 448.93 746.02
  L 448.60 746.12
  L 448.60 746.12
  L 448.51 746.25
  Z"
/>
<path fill="#60a5fa" d="
  M 483.22 754.89
  L 483.66 756.79
  L 484.09 757.92
  L 486.78 762.50
  L 487.07 763.18
  L 487.02 763.66
  L 487.02 763.66
  L 487.02 763.66
  L 486.63 763.94
  L 485.91 764.04
  L 484.16 764.04
  L 482.76 763.70
  L 481.73 762.67
  L 478.33 757.09
  L 477.21 755.79
  L 475.91 755.04
  L 475.91 755.04
  L 474.92 754.86
  L 473.85 754.93
  L 473.20 755.31
  L 472.94 756.01
  L 472.94 761.71
  L 472.60 762.96
  L 471.57 763.76
  L 470.42 764.00
  L 469.36 763.73
  L 468.61 763.20
  L 468.16 762.39
  L 468.01 761.32
  L 468.01 741.01
  L 468.37 740.14
  L 469.23 739.76
  L 475.90 739.78
  L 481.39 740.15
  L 482.77 740.40
  L 483.96 740.81
  L 484.96 741.38
  L 485.78 742.12
  L 485.78 742.12
  L 485.78 742.12
  L 486.53 743.28
  L 486.99 744.71
  L 487.14 747.35
  L 486.63 750.52
  L 486.22 751.26
  L 483.49 753.99
  L 483.23 754.42
  L 483.22 754.89
  Z
  M 482.0101 746.0519
  L 481.8573 745.2549
  L 481.4111 744.5769
  L 480.7395 744.1214
  L 479.9447 743.9575
  L 474.9648 743.9227
  L 474.1677 744.0755
  L 473.4898 744.5216
  L 473.0342 745.1933
  L 472.8703 745.9881
  L 472.8499 748.9081
  L 473.0027 749.7051
  L 473.4489 750.3831
  L 474.1205 750.8386
  L 474.9153 751.0025
  L 479.8952 751.0373
  L 480.6923 750.8845
  L 481.3702 750.4384
  L 481.8258 749.7667
  L 481.9897 748.9719
  L 482.0101 746.0519
  Z"
/>
<path fill="#60a5fa" d="
  M 504.80 739.84
  L 506.39 739.93
  L 507.38 740.31
  L 507.99 740.95
  L 508.48 742.02
  L 511.85 751.88
  L 515.68 762.43
  L 515.75 762.91
  L 515.60 763.38
  L 515.28 763.73
  L 514.83 763.92
  L 514.63 763.94
  L 512.66 763.94
  L 511.60 763.60
  L 510.93 762.72
  L 509.96 759.93
  L 509.49 759.27
  L 508.73 759.00
  L 504.82 758.96
  L 500.91 759.00
  L 500.15 759.28
  L 499.68 759.94
  L 498.71 762.73
  L 498.04 763.62
  L 496.98 763.95
  L 495.01 763.96
  L 494.82 763.94
  L 494.37 763.75
  L 494.04 763.39
  L 493.90 762.93
  L 493.96 762.45
  L 497.77 751.89
  L 501.13 742.02
  L 501.62 740.96
  L 502.23 740.31
  L 503.21 739.93
  L 504.80 739.84
  Z
  M 504.37 746.60
  L 501.80 753.83
  L 501.84 754.34
  L 502.23 754.66
  L 502.27 754.67
  L 505.02 755.09
  L 507.28 755.03
  L 507.36 755.01
  L 507.81 754.63
  L 507.82 754.00
  L 504.91 746.59
  L 504.64 746.24
  L 504.37 746.60
  Z"
/>
<path fill="#60a5fa" d="
  M 556.20 749.78
  L 565.14 750.19
  L 565.78 749.95
  L 566.06 749.33
  L 566.06 749.31
  L 566.06 741.47
  L 566.18 740.61
  L 566.55 740.07
  L 566.55 740.07
  L 566.55 740.07
  L 567.17 739.83
  L 568.03 739.90
  L 568.39 739.98
  L 569.53 740.41
  L 570.24 741.10
  L 570.24 741.10
  L 570.51 741.80
  L 570.53 742.65
  L 570.11 747.78
  L 570.00 752.60
  L 570.20 757.11
  L 570.70 761.31
  L 570.72 762.26
  L 570.42 762.95
  L 570.42 762.95
  L 569.79 763.36
  L 568.83 763.50
  L 568.31 763.50
  L 567.32 763.36
  L 566.61 762.93
  L 566.19 762.23
  L 566.05 761.25
  L 566.05 754.99
  L 565.77 754.27
  L 565.08 753.92
  L 564.97 753.91
  L 556.22 753.91
  L 555.35 754.27
  L 554.99 755.13
  L 554.99 755.13
  L 554.99 762.50
  L 554.89 763.20
  L 554.59 763.69
  L 554.59 763.69
  L 554.59 763.69
  L 554.09 763.97
  L 553.39 764.04
  L 552.10 763.98
  L 551.30 763.79
  L 550.64 763.32
  L 550.20 762.63
  L 550.04 761.83
  L 550.04 741.06
  L 550.34 740.17
  L 551.25 739.90
  L 553.84 740.02
  L 554.68 740.40
  L 555.02 741.26
  L 555.02 748.55
  L 555.36 749.40
  L 556.20 749.78
  Z"
/>
<path fill="#60a5fa" d="
  M 586.87 758.64
  L 586.10 758.73
  L 585.40 759.05
  L 584.83 759.58
  L 584.46 760.26
  L 583.56 762.78
  L 583.25 763.38
  L 582.82 763.74
  L 582.82 763.74
  L 582.82 763.74
  L 582.27 763.85
  L 581.60 763.71
  L 580.27 763.24
  L 579.65 762.92
  L 579.28 762.47
  L 579.28 762.47
  L 579.28 762.47
  L 579.16 761.90
  L 579.30 761.20
  L 586.39 741.27
  L 586.63 740.83
  L 587.03 740.50
  L 588.10 740.02
  L 589.19 739.80
  L 589.19 739.80
  L 591.07 740.03
  L 591.94 740.57
  L 592.80 741.64
  L 594.01 743.78
  L 597.21 752.72
  L 600.87 761.95
  L 600.96 762.47
  L 600.82 762.97
  L 600.48 763.37
  L 600.00 763.58
  L 599.77 763.60
  L 598.07 763.60
  L 597.11 763.36
  L 596.43 762.66
  L 594.60 759.48
  L 594.24 759.10
  L 593.72 758.95
  L 586.87 758.64
  Z
  M 589.25 746.41
  L 587.24 753.08
  L 587.20 753.67
  L 587.42 754.21
  L 587.86 754.61
  L 588.42 754.77
  L 588.42 754.77
  L 588.74 754.74
  L 592.32 754.02
  L 592.72 753.79
  L 592.71 753.31
  L 589.93 746.39
  L 589.66 746.17
  L 589.33 746.28
  L 589.25 746.41
  Z"
/>
<path fill="#60a5fa" d="
  M 402.29 763.34
  L 399.16 764.25
  L 398.39 764.10
  L 398.04 763.40
  L 398.04 744.75
  L 397.78 744.13
  L 397.16 743.87
  L 391.44 743.87
  L 390.80 743.60
  L 390.56 742.95
  L 390.65 740.85
  L 390.74 740.51
  L 391.06 740.15
  L 391.53 740.01
  L 408.87 740.01
  L 409.34 740.15
  L 409.71 740.65
  L 410.35 742.84
  L 410.20 743.61
  L 409.50 743.96
  L 403.81 743.96
  L 403.58 743.99
  L 403.11 744.31
  L 402.93 744.84
  L 402.93 762.50
  L 402.78 762.99
  L 402.38 763.31
  L 402.38 763.31
  L 402.29 763.34
  Z"
/>
<path fill="#60a5fa" d="
  M 426.26 744.84
  L 425.98 749.92
  L 426.32 754.53
  L 426.81 758.72
  L 426.90 762.07
  L 426.53 763.20
  L 426.53 763.20
  L 425.94 763.65
  L 425.08 763.88
  L 423.78 764.05
  L 423.03 764.04
  L 422.49 763.78
  L 422.49 763.78
  L 422.17 763.28
  L 422.06 762.53
  L 422.06 744.82
  L 421.81 744.22
  L 421.20 743.97
  L 416.17 743.97
  L 415.61 743.89
  L 415.21 743.65
  L 415.21 743.65
  L 414.97 743.25
  L 414.89 742.68
  L 414.89 741.18
  L 415.19 740.29
  L 416.08 739.99
  L 432.78 739.99
  L 433.69 740.37
  L 434.06 741.28
  L 434.06 742.78
  L 433.98 743.35
  L 433.73 743.76
  L 433.73 743.76
  L 433.33 744.00
  L 432.77 744.08
  L 427.11 744.08
  L 426.54 744.30
  L 426.26 744.84
  Z"
/>
</svg>
