<?xml version="1.0" encoding="UTF-8" standalone="no"?>
<!DOCTYPE svg PUBLIC "-//W3C//DTD SVG 1.1//EN" "http://www.w3.org/Graphics/SVG/1.1/DTD/svg11.dtd">
<svg xmlns="http://www.w3.org/2000/svg" version="1.1" viewBox="0.00 0.00 1024.00 1024.00">
<path fill="#ffffff" d="
  M 510.6077 330.9333
  L 507.1001 330.6237
  L 503.6397 329.9682
  L 500.2599 328.9728
  L 496.9931 327.6473
  L 493.8708 326.0044
  L 490.9232 324.0600
  L 488.1785 321.8326
  L 485.6632 319.3439
  L 483.4015 316.6178
  L 481.4153 313.6805
  L 479.7237 310.5602
  L 478.3428 307.2872
  L 477.2861 303.8928
  L 476.5637 300.4098
  L 476.1826 296.8717
  L 476.1464 293.3126
  L 476.4556 289.7668
  L 477.1070 286.2684
  L 478.0945 282.8511
  L 479.4085 279.5478
  L 481.0363 276.3903
  L 482.9624 273.4091
  L 485.1681 270.6328
  L 487.6322 268.0882
  L 490.3310 265.7998
  L 493.2385 263.7896
  L 496.3267 262.0770
  L 499.5658 260.6785
  L 502.9246 259.6075
  L 506.3709 258.8744
  L 509.8714 258.4863
  L 513.3923 258.4467
  L 513.3923 258.4467
  L 516.8999 258.7563
  L 520.3603 259.4118
  L 523.7401 260.4072
  L 527.0069 261.7327
  L 530.1292 263.3756
  L 533.0768 265.3200
  L 535.8215 267.5474
  L 538.3368 270.0361
  L 540.5985 272.7622
  L 542.5847 275.6995
  L 544.2763 278.8198
  L 545.6572 282.0928
  L 546.7139 285.4872
  L 547.4363 288.9702
  L 547.8174 292.5083
  L 547.8536 296.0674
  L 547.5444 299.6132
  L 546.8930 303.1116
  L 545.9055 306.5289
  L 544.5915 309.8322
  L 542.9637 312.9897
  L 541.0376 315.9709
  L 538.8319 318.7472
  L 536.3678 321.2918
  L 533.6690 323.5802
  L 530.7615 325.5904
  L 527.6733 327.3030
  L 524.4342 328.7015
  L 521.0754 329.7725
  L 517.6291 330.5056
  L 514.1286 330.8937
  L 510.6077 330.9333
  Z
  M 536.39 294.75
  L 536.27 292.36
  L 535.92 289.99
  L 535.34 287.67
  L 534.53 285.42
  L 533.51 283.25
  L 532.28 281.20
  L 530.85 279.28
  L 529.25 277.50
  L 527.47 275.90
  L 525.55 274.47
  L 523.50 273.24
  L 521.33 272.22
  L 519.08 271.41
  L 516.76 270.83
  L 514.39 270.48
  L 512.00 270.36
  L 509.61 270.48
  L 507.24 270.83
  L 504.92 271.41
  L 502.67 272.22
  L 500.50 273.24
  L 498.45 274.47
  L 496.53 275.90
  L 494.75 277.50
  L 493.15 279.28
  L 491.72 281.20
  L 490.49 283.25
  L 489.47 285.42
  L 488.66 287.67
  L 488.08 289.99
  L 487.73 292.36
  L 487.61 294.75
  L 487.73 297.14
  L 488.08 299.51
  L 488.66 301.83
  L 489.47 304.08
  L 490.49 306.25
  L 491.72 308.30
  L 493.15 310.22
  L 494.75 312.00
  L 496.53 313.60
  L 498.45 315.03
  L 500.50 316.26
  L 502.67 317.28
  L 504.92 318.09
  L 507.24 318.67
  L 509.61 319.02
  L 512.00 319.14
  L 514.39 319.02
  L 516.76 318.67
  L 519.08 318.09
  L 521.33 317.28
  L 523.50 316.26
  L 525.55 315.03
  L 527.47 313.60
  L 529.25 312.00
  L 530.85 310.22
  L 532.28 308.30
  L 533.51 306.25
  L 534.53 304.08
  L 535.34 301.83
  L 535.92 299.51
  L 536.27 297.14
  L 536.39 294.75
  Z"
/>
<path fill="#ffffff" d="
  M 445.8676 398.7804
  L 442.6539 398.3136
  L 439.5017 397.5280
  L 436.4413 396.4313
  L 433.5023 395.0341
  L 430.7129 393.3497
  L 428.1000 391.3944
  L 425.6888 389.1870
  L 423.5025 386.7488
  L 421.5621 384.1033
  L 419.8863 381.2759
  L 418.4913 378.2939
  L 417.3905 375.1860
  L 416.5945 371.9821
  L 416.1109 368.7131
  L 415.9445 365.4104
  L 416.0969 362.1060
  L 416.5664 358.8315
  L 417.3488 355.6185
  L 418.4363 352.4980
  L 419.8185 349.5000
  L 421.4822 346.6534
  L 423.4113 343.9856
  L 425.5871 341.5223
  L 427.9889 339.2873
  L 430.5934 337.3019
  L 433.3755 335.5855
  L 436.3085 334.1544
  L 439.3641 333.0225
  L 442.5129 332.2007
  L 445.7245 331.6969
  L 448.9681 331.5160
  L 452.2124 331.6596
  L 452.2124 331.6596
  L 455.4261 332.1264
  L 458.5783 332.9120
  L 461.6387 334.0087
  L 464.5777 335.4059
  L 467.3671 337.0903
  L 469.9800 339.0456
  L 472.3912 341.2530
  L 474.5775 343.6912
  L 476.5179 346.3367
  L 478.1937 349.1641
  L 479.5887 352.1461
  L 480.6895 355.2540
  L 481.4855 358.4579
  L 481.9691 361.7269
  L 482.1355 365.0296
  L 481.9831 368.3340
  L 481.5136 371.6085
  L 480.7312 374.8215
  L 479.6437 377.9420
  L 478.2615 380.9400
  L 476.5978 383.7866
  L 474.6687 386.4544
  L 472.4929 388.9177
  L 470.0911 391.1527
  L 467.4866 393.1381
  L 464.7045 394.8545
  L 461.7715 396.2856
  L 458.7159 397.4175
  L 455.5671 398.2393
  L 452.3555 398.7431
  L 449.1119 398.9240
  L 445.8676 398.7804
  Z
  M 446.9709 387.1029
  L 449.0730 387.1958
  L 451.1746 387.0780
  L 453.2557 386.7506
  L 455.2960 386.2169
  L 457.2759 385.4819
  L 459.1765 384.5528
  L 460.9793 383.4384
  L 462.6671 382.1496
  L 464.2235 380.6986
  L 465.6336 379.0996
  L 466.8838 377.3678
  L 467.9621 375.5200
  L 468.8580 373.5740
  L 469.5630 371.5485
  L 470.0702 369.4631
  L 470.3748 367.3377
  L 470.4739 365.1929
  L 470.3664 363.0493
  L 470.0535 360.9276
  L 469.5380 358.8481
  L 468.8251 356.8311
  L 467.9216 354.8957
  L 466.8361 353.0608
  L 465.5791 351.3439
  L 464.1627 349.7616
  L 462.6006 348.3291
  L 460.9078 347.0603
  L 459.1007 345.9674
  L 457.1965 345.0608
  L 455.2137 344.3493
  L 453.1713 343.8398
  L 451.0891 343.5371
  L 451.0891 343.5371
  L 448.9870 343.4442
  L 446.8854 343.5620
  L 444.8043 343.8894
  L 442.7640 344.4231
  L 440.7841 345.1581
  L 438.8835 346.0872
  L 437.0807 347.2016
  L 435.3929 348.4904
  L 433.8365 349.9414
  L 432.4264 351.5404
  L 431.1762 353.2722
  L 430.0979 355.1200
  L 429.2020 357.0660
  L 428.4970 359.0915
  L 427.9898 361.1769
  L 427.6852 363.3023
  L 427.5861 365.4471
  L 427.6936 367.5907
  L 428.0065 369.7124
  L 428.5220 371.7919
  L 429.2349 373.8089
  L 430.1384 375.7443
  L 431.2239 377.5792
  L 432.4809 379.2961
  L 433.8973 380.8784
  L 435.4594 382.3109
  L 437.1522 383.5797
  L 438.9593 384.6726
  L 440.8635 385.5792
  L 442.8463 386.2907
  L 444.8887 386.8002
  L 446.9709 387.1029
  Z"
/>
<path fill="#ffffff" d="
  M 575.8668 399.1313
  L 572.6216 399.0421
  L 569.4002 398.6284
  L 566.2337 397.8941
  L 563.1526 396.8463
  L 560.1865 395.4950
  L 557.3641 393.8534
  L 554.7124 391.9371
  L 552.2572 389.7647
  L 550.0219 387.3571
  L 548.0281 384.7375
  L 546.2950 381.9310
  L 544.8394 378.9647
  L 543.6752 375.8673
  L 542.8136 372.6684
  L 542.2629 369.3990
  L 542.0285 366.0905
  L 542.1126 362.7748
  L 542.5144 359.4837
  L 543.2300 356.2491
  L 544.2525 353.1020
  L 545.5721 350.0728
  L 547.1760 347.1906
  L 549.0489 344.4832
  L 551.1727 341.9766
  L 553.5269 339.6951
  L 556.0889 337.6605
  L 558.8339 335.8925
  L 561.7356 334.4081
  L 564.7660 333.2216
  L 567.8960 332.3444
  L 571.0953 331.7850
  L 574.3332 331.5487
  L 574.3332 331.5487
  L 577.5784 331.6379
  L 580.7998 332.0516
  L 583.9663 332.7859
  L 587.0474 333.8337
  L 590.0135 335.1850
  L 592.8359 336.8266
  L 595.4876 338.7429
  L 597.9428 340.9153
  L 600.1781 343.3229
  L 602.1719 345.9425
  L 603.9050 348.7490
  L 605.3606 351.7153
  L 606.5248 354.8127
  L 607.3864 358.0116
  L 607.9371 361.2810
  L 608.1715 364.5895
  L 608.0874 367.9052
  L 607.6856 371.1963
  L 606.9700 374.4309
  L 605.9475 377.5780
  L 604.6279 380.6072
  L 603.0240 383.4894
  L 601.1511 386.1968
  L 599.0273 388.7034
  L 596.6731 390.9849
  L 594.1111 393.0195
  L 591.3661 394.7875
  L 588.4644 396.2719
  L 585.4340 397.4584
  L 582.3040 398.3356
  L 579.1047 398.8950
  L 575.8668 399.1313
  Z
  M 571.3718 387.0170
  L 573.4726 387.2692
  L 575.5886 387.3111
  L 577.6996 387.1424
  L 579.7852 386.7647
  L 581.8253 386.1817
  L 583.8002 385.3988
  L 585.6909 384.4238
  L 587.4793 383.2659
  L 589.1480 381.9364
  L 590.6811 380.4480
  L 592.0638 378.8150
  L 593.2826 377.0533
  L 594.3260 375.1797
  L 595.1839 373.2123
  L 595.8479 371.1701
  L 596.3118 369.0726
  L 596.5709 366.9402
  L 596.6230 364.7934
  L 596.4673 362.6527
  L 596.1055 360.5389
  L 595.5410 358.4723
  L 594.7793 356.4729
  L 593.8276 354.5597
  L 592.6952 352.7514
  L 591.3930 351.0652
  L 589.9335 349.5175
  L 588.3307 348.1232
  L 586.6002 346.8956
  L 584.7585 345.8465
  L 582.8234 344.9862
  L 580.8135 344.3229
  L 578.7482 343.8630
  L 578.7482 343.8630
  L 576.6474 343.6108
  L 574.5314 343.5689
  L 572.4204 343.7376
  L 570.3348 344.1153
  L 568.2947 344.6983
  L 566.3198 345.4812
  L 564.4291 346.4562
  L 562.6407 347.6141
  L 560.9720 348.9436
  L 559.4389 350.4320
  L 558.0562 352.0650
  L 556.8374 353.8267
  L 555.7940 355.7003
  L 554.9361 357.6677
  L 554.2721 359.7099
  L 553.8082 361.8074
  L 553.5491 363.9398
  L 553.4970 366.0866
  L 553.6527 368.2273
  L 554.0145 370.3411
  L 554.5790 372.4077
  L 555.3407 374.4071
  L 556.2924 376.3203
  L 557.4248 378.1286
  L 558.7270 379.8148
  L 560.1865 381.3625
  L 561.7893 382.7568
  L 563.5198 383.9844
  L 565.3615 385.0335
  L 567.2966 385.8938
  L 569.3065 386.5571
  L 571.3718 387.0170
  Z"
/>
<path fill="#ffffff" d="
  M 624.84 441.48
  L 625.35 441.98
  L 625.71 442.08
  L 625.71 442.08
  L 625.93 441.77
  L 626.00 441.06
  L 625.79 409.32
  L 625.89 407.48
  L 626.24 406.07
  L 626.85 404.85
  L 627.78 403.61
  L 633.27 397.47
  L 638.99 391.39
  L 644.95 385.36
  L 651.15 379.40
  L 651.52 379.26
  L 651.90 379.41
  L 659.44 386.56
  L 659.45 386.57
  L 659.75 387.28
  L 659.46 388.01
  L 643.49 403.99
  L 639.62 408.19
  L 638.84 409.49
  L 638.31 411.09
  L 638.05 412.94
  L 637.97 415.41
  L 637.97 415.75
  L 638.07 446.75
  L 637.98 451.66
  L 637.67 456.88
  L 636.39 468.23
  L 634.90 476.60
  L 632.89 484.75
  L 630.36 492.66
  L 627.30 500.34
  L 627.30 500.34
  L 627.30 500.34
  L 627.30 500.34
  L 624.34 506.59
  L 621.01 512.68
  L 617.32 518.60
  L 613.26 524.37
  L 613.10 524.75
  L 613.51 524.70
  L 615.98 523.58
  L 618.43 522.13
  L 625.42 517.67
  L 628.29 515.84
  L 631.62 513.40
  L 639.65 506.65
  L 644.90 501.58
  L 649.55 496.31
  L 652.89 491.90
  L 656.05 487.12
  L 658.95 482.08
  L 661.72 476.58
  L 663.58 472.25
  L 665.12 467.81
  L 665.12 467.81
  L 665.12 467.81
  L 666.44 462.79
  L 667.37 457.64
  L 667.90 452.38
  L 668.04 446.99
  L 668.32 446.30
  L 669.01 446.01
  L 669.01 446.01
  L 669.01 446.01
  L 677.24 446.01
  L 678.07 446.13
  L 678.64 446.48
  L 678.64 446.48
  L 678.97 447.07
  L 679.06 447.89
  L 678.60 458.77
  L 677.97 467.96
  L 677.15 476.07
  L 676.13 483.00
  L 674.70 490.41
  L 673.02 497.63
  L 671.09 504.66
  L 668.92 511.51
  L 666.49 518.17
  L 663.82 524.64
  L 660.90 530.93
  L 657.73 537.03
  L 652.93 545.22
  L 652.93 545.22
  L 652.93 545.22
  L 648.45 552.02
  L 643.62 558.60
  L 638.46 564.97
  L 632.96 571.13
  L 627.11 577.08
  L 620.93 582.81
  L 614.40 588.33
  L 607.54 593.64
  L 599.51 599.13
  L 590.65 604.32
  L 584.25 607.62
  L 577.74 610.64
  L 571.14 613.37
  L 564.45 615.82
  L 564.45 615.82
  L 564.45 615.82
  L 557.99 617.88
  L 551.45 619.68
  L 545.97 620.97
  L 540.57 622.02
  L 535.24 622.83
  L 529.99 623.41
  L 520.33 624.04
  L 510.87 624.21
  L 501.60 623.91
  L 492.52 623.16
  L 486.64 622.39
  L 479.88 621.21
  L 473.23 619.73
  L 466.63 617.95
  L 459.92 615.81
  L 453.22 613.36
  L 446.40 610.54
  L 439.57 607.41
  L 432.58 603.89
  L 429.74 602.35
  L 422.57 598.03
  L 415.67 593.23
  L 409.98 588.84
  L 404.55 584.35
  L 399.39 579.76
  L 394.50 575.07
  L 389.87 570.28
  L 385.51 565.39
  L 381.41 560.41
  L 377.58 555.32
  L 371.71 546.63
  L 366.44 537.71
  L 361.77 528.55
  L 357.70 519.15
  L 357.70 519.15
  L 357.70 519.15
  L 357.70 519.15
  L 354.92 511.59
  L 352.51 503.88
  L 350.47 496.02
  L 348.80 488.01
  L 347.31 478.29
  L 346.35 468.21
  L 345.90 457.76
  L 345.97 446.94
  L 346.23 446.22
  L 346.98 445.97
  L 354.91 445.97
  L 355.67 446.22
  L 355.97 446.95
  L 356.88 456.64
  L 357.95 463.15
  L 358.62 465.79
  L 360.15 470.74
  L 362.02 475.52
  L 364.26 480.27
  L 366.81 484.84
  L 369.71 489.34
  L 373.03 493.84
  L 376.63 498.15
  L 380.63 502.44
  L 387.10 508.56
  L 394.10 514.32
  L 401.62 519.72
  L 409.67 524.75
  L 409.99 524.81
  L 410.09 524.50
  L 409.94 523.62
  L 409.46 522.65
  L 404.10 514.52
  L 399.46 506.16
  L 395.53 497.57
  L 392.33 488.75
  L 392.33 488.75
  L 392.33 488.75
  L 392.33 488.75
  L 390.88 483.85
  L 389.65 478.87
  L 388.63 473.83
  L 387.82 468.72
  L 387.23 463.55
  L 386.85 458.30
  L 386.68 452.99
  L 386.73 447.61
  L 387.17 420.07
  L 387.01 414.78
  L 386.46 411.32
  L 386.00 410.16
  L 385.29 408.96
  L 383.10 406.39
  L 367.01 390.49
  L 365.16 388.42
  L 364.84 387.37
  L 365.28 386.36
  L 371.98 379.30
  L 372.34 379.11
  L 372.69 379.28
  L 383.51 389.83
  L 394.01 400.36
  L 396.01 402.58
  L 397.18 404.52
  L 397.90 407.06
  L 398.23 410.12
  L 398.29 413.00
  L 397.98 427.48
  L 398.00 440.62
  L 398.24 441.05
  L 398.72 441.09
  L 398.89 440.97
  L 426.76 411.60
  L 427.09 411.33
  L 427.55 411.15
  L 431.16 410.68
  L 432.56 410.79
  L 433.89 411.16
  L 435.14 411.82
  L 436.35 412.82
  L 441.72 418.49
  L 448.88 426.58
  L 449.42 426.84
  L 449.99 426.63
  L 450.01 426.61
  L 478.02 397.33
  L 504.82 368.41
  L 507.52 365.87
  L 508.65 365.16
  L 509.63 364.84
  L 510.72 364.72
  L 513.01 364.75
  L 515.33 365.15
  L 516.19 365.50
  L 517.17 366.16
  L 519.49 368.36
  L 543.97 394.89
  L 557.81 409.33
  L 571.69 424.25
  L 573.07 425.64
  L 574.44 426.74
  L 574.79 426.84
  L 575.05 426.60
  L 576.76 424.02
  L 581.24 419.01
  L 587.93 412.67
  L 589.86 411.25
  L 591.91 410.28
  L 593.68 409.94
  L 595.14 410.18
  L 596.34 410.98
  L 604.89 419.15
  L 613.25 428.39
  L 621.16 436.74
  L 623.43 439.60
  L 624.84 441.48
  Z
  M 463.83 458.43
  L 469.74 463.57
  L 475.72 469.14
  L 481.75 475.14
  L 487.84 481.57
  L 487.85 481.58
  L 488.16 482.10
  L 488.25 482.71
  L 488.10 483.30
  L 487.73 483.79
  L 483.93 486.92
  L 480.05 489.51
  L 478.91 490.01
  L 477.90 490.11
  L 476.43 489.60
  L 474.70 488.20
  L 473.72 487.33
  L 473.52 487.26
  L 473.34 487.34
  L 473.33 487.34
  L 473.33 487.34
  L 473.62 487.99
  L 481.77 496.31
  L 490.09 504.04
  L 490.23 504.29
  L 490.10 504.55
  L 482.40 512.25
  L 481.71 512.77
  L 481.02 512.93
  L 481.02 512.93
  L 481.02 512.93
  L 480.34 512.76
  L 479.67 512.23
  L 472.35 504.90
  L 471.54 504.19
  L 470.87 504.03
  L 470.38 504.15
  L 470.38 504.15
  L 470.09 504.56
  L 469.99 505.28
  L 470.07 523.00
  L 469.94 525.89
  L 469.59 528.07
  L 469.51 528.89
  L 469.72 529.48
  L 469.72 529.48
  L 470.24 529.83
  L 471.07 529.95
  L 505.11 529.95
  L 505.74 529.69
  L 506.01 529.05
  L 505.99 491.75
  L 505.67 489.44
  L 505.08 487.94
  L 504.18 486.52
  L 501.07 482.68
  L 495.02 476.41
  L 487.37 468.82
  L 486.96 468.05
  L 487.31 467.24
  L 492.50 462.06
  L 493.52 461.29
  L 494.40 460.93
  L 494.96 460.90
  L 495.90 461.21
  L 496.79 461.96
  L 501.01 466.21
  L 505.47 469.78
  L 505.74 469.86
  L 505.86 469.61
  L 506.09 463.76
  L 506.08 462.91
  L 505.85 459.19
  L 505.45 457.90
  L 504.87 456.94
  L 504.38 456.43
  L 501.90 454.20
  L 496.46 448.51
  L 489.12 441.56
  L 487.21 439.55
  L 486.93 438.57
  L 487.38 437.65
  L 494.46 431.03
  L 495.02 430.78
  L 495.55 431.05
  L 504.16 439.65
  L 504.66 440.03
  L 505.11 440.11
  L 505.11 440.11
  L 505.11 440.11
  L 505.51 439.89
  L 505.87 439.38
  L 506.12 438.43
  L 506.14 437.00
  L 505.91 427.97
  L 506.04 416.33
  L 506.23 415.20
  L 506.74 414.47
  L 507.85 414.10
  L 510.07 414.00
  L 514.34 413.90
  L 517.46 414.26
  L 517.83 414.46
  L 517.95 414.86
  L 517.94 439.75
  L 517.98 440.46
  L 518.37 440.86
  L 518.87 440.62
  L 527.92 431.60
  L 528.64 431.12
  L 529.50 430.95
  L 530.35 431.12
  L 531.07 431.60
  L 537.21 437.75
  L 537.51 438.46
  L 537.23 439.17
  L 528.68 447.87
  L 519.37 456.88
  L 518.44 458.29
  L 518.03 460.28
  L 517.89 464.97
  L 518.12 469.19
  L 518.25 469.72
  L 518.50 470.01
  L 518.89 470.05
  L 519.40 469.86
  L 520.35 469.16
  L 521.57 467.94
  L 522.52 466.98
  L 530.17 460.45
  L 530.63 460.27
  L 531.05 460.48
  L 538.10 467.53
  L 538.29 467.93
  L 538.10 468.34
  L 519.72 486.72
  L 518.67 488.10
  L 518.67 488.10
  L 518.11 489.57
  L 517.93 491.25
  L 518.00 528.71
  L 518.08 529.27
  L 518.32 529.68
  L 518.73 529.92
  L 519.29 530.00
  L 554.05 530.00
  L 554.52 529.85
  L 554.81 529.46
  L 554.93 529.08
  L 555.12 527.72
  L 555.01 526.28
  L 554.68 525.39
  L 554.09 524.57
  L 551.79 522.58
  L 550.83 521.84
  L 548.78 519.94
  L 530.24 500.74
  L 530.13 500.48
  L 530.24 500.23
  L 530.24 500.23
  L 530.24 500.23
  L 537.34 493.12
  L 537.79 492.89
  L 538.28 493.06
  L 543.24 496.95
  L 545.93 499.32
  L 553.99 507.54
  L 554.43 507.89
  L 554.75 507.94
  L 554.94 507.68
  L 555.00 507.12
  L 555.00 462.92
  L 555.24 462.20
  L 555.96 461.96
  L 566.29 461.96
  L 566.77 462.16
  L 566.97 462.64
  L 566.97 507.50
  L 567.08 508.35
  L 567.43 508.84
  L 567.43 508.84
  L 568.30 508.95
  L 568.74 508.72
  L 585.46 493.11
  L 586.07 492.87
  L 586.67 493.13
  L 593.80 500.26
  L 593.87 500.44
  L 593.80 500.62
  L 584.48 510.07
  L 574.95 518.71
  L 574.85 518.80
  L 571.19 522.06
  L 568.72 524.68
  L 567.28 526.86
  L 566.94 527.77
  L 566.87 528.60
  L 567.01 529.24
  L 567.32 529.69
  L 567.81 529.97
  L 568.46 530.06
  L 591.50 530.06
  L 592.57 529.95
  L 593.52 529.61
  L 593.52 529.61
  L 594.34 529.07
  L 595.05 528.32
  L 600.27 521.80
  L 605.58 514.64
  L 610.41 506.94
  L 614.76 498.69
  L 618.64 489.89
  L 620.81 483.92
  L 622.57 477.85
  L 622.57 477.85
  L 623.61 473.36
  L 624.43 468.82
  L 625.04 464.22
  L 625.43 459.57
  L 625.19 458.67
  L 622.89 455.59
  L 620.04 452.46
  L 614.05 446.43
  L 605.21 436.88
  L 597.34 428.68
  L 596.18 427.24
  L 595.00 425.77
  L 593.94 424.94
  L 593.10 424.80
  L 592.34 425.18
  L 583.20 434.32
  L 582.92 434.85
  L 583.09 435.43
  L 586.34 439.66
  L 597.88 451.36
  L 598.21 452.02
  L 597.88 452.68
  L 591.02 459.54
  L 590.70 459.72
  L 590.31 459.65
  L 588.55 458.63
  L 587.27 457.55
  L 574.73 444.31
  L 567.27 436.50
  L 522.17 388.60
  L 518.67 384.76
  L 515.51 381.00
  L 514.36 379.85
  L 513.00 378.98
  L 512.55 378.86
  L 512.07 378.97
  L 511.36 379.35
  L 509.84 380.59
  L 482.30 409.82
  L 471.96 420.54
  L 459.77 433.22
  L 448.76 444.69
  L 434.46 459.06
  L 433.89 459.62
  L 433.48 459.82
  L 433.07 459.62
  L 426.23 452.78
  L 425.84 451.98
  L 426.23 451.19
  L 440.25 437.16
  L 440.77 436.38
  L 440.97 435.46
  L 440.79 434.54
  L 440.28 433.75
  L 440.25 433.72
  L 432.02 425.48
  L 431.51 425.10
  L 431.00 424.97
  L 430.50 425.10
  L 429.99 425.49
  L 423.21 432.54
  L 418.97 437.23
  L 408.29 448.27
  L 407.49 449.09
  L 401.58 455.69
  L 398.85 458.85
  L 398.58 459.71
  L 398.91 463.63
  L 399.26 467.61
  L 399.72 470.56
  L 401.73 478.86
  L 404.26 486.89
  L 407.31 494.65
  L 410.87 502.14
  L 410.87 502.14
  L 410.87 502.14
  L 414.73 509.00
  L 419.06 515.61
  L 423.84 521.98
  L 429.10 528.11
  L 430.61 529.30
  L 432.31 529.86
  L 434.75 530.03
  L 442.24 529.96
  L 450.74 529.38
  L 455.24 529.38
  L 456.27 529.57
  L 456.80 529.66
  L 457.30 529.54
  L 457.70 529.25
  L 457.90 528.83
  L 457.92 528.65
  L 458.04 503.77
  L 457.77 503.26
  L 457.21 503.20
  L 457.01 503.32
  L 446.58 513.06
  L 446.06 513.29
  L 445.56 513.04
  L 438.25 505.73
  L 437.79 505.12
  L 437.64 504.51
  L 437.64 504.51
  L 437.79 503.90
  L 438.25 503.28
  L 450.60 490.94
  L 450.77 490.58
  L 450.44 490.35
  L 448.14 489.58
  L 446.72 488.80
  L 440.66 484.00
  L 439.98 483.27
  L 439.72 482.52
  L 439.72 482.52
  L 439.89 481.75
  L 440.49 480.95
  L 462.97 458.47
  L 463.39 458.26
  L 463.83 458.43
  Z
  M 394.16 557.19
  L 394.81 557.78
  L 395.51 558.06
  L 396.27 558.04
  L 397.08 557.71
  L 400.66 555.93
  L 404.22 554.70
  L 407.76 554.01
  L 411.28 553.87
  L 411.28 553.87
  L 411.28 553.87
  L 415.46 554.41
  L 419.61 555.73
  L 422.15 556.95
  L 424.50 558.41
  L 426.71 560.16
  L 428.69 562.12
  L 430.20 564.00
  L 431.52 566.01
  L 432.65 568.14
  L 433.56 570.39
  L 434.25 572.69
  L 434.73 575.08
  L 434.99 577.53
  L 435.02 580.05
  L 435.07 580.38
  L 435.31 580.76
  L 435.70 580.98
  L 436.15 581.00
  L 436.56 580.81
  L 438.89 579.11
  L 441.29 577.69
  L 443.78 576.55
  L 446.34 575.70
  L 446.34 575.70
  L 449.08 575.10
  L 451.90 574.81
  L 454.80 574.81
  L 457.79 575.12
  L 458.65 575.27
  L 458.65 575.27
  L 462.05 576.18
  L 465.35 577.61
  L 468.55 579.57
  L 471.66 582.05
  L 474.20 584.74
  L 476.17 587.74
  L 476.17 587.74
  L 477.67 591.39
  L 478.48 595.41
  L 478.50 595.53
  L 478.70 596.00
  L 479.08 596.35
  L 479.57 596.51
  L 480.08 596.46
  L 484.64 594.97
  L 488.52 593.49
  L 503.87 586.79
  L 517.25 580.24
  L 521.60 577.65
  L 526.07 574.33
  L 526.50 573.79
  L 526.65 573.12
  L 526.50 572.45
  L 526.07 571.91
  L 525.79 571.73
  L 521.97 570.40
  L 513.91 568.69
  L 500.39 566.63
  L 490.97 565.18
  L 481.51 563.43
  L 471.99 561.38
  L 462.43 559.02
  L 452.63 556.20
  L 443.45 553.06
  L 434.34 549.52
  L 425.59 545.84
  L 417.19 542.03
  L 409.15 538.09
  L 401.35 533.85
  L 393.91 529.27
  L 386.83 524.36
  L 380.10 519.10
  L 375.32 514.82
  L 369.97 509.43
  L 366.94 506.55
  L 366.32 506.16
  L 365.97 506.13
  L 365.97 506.13
  L 365.88 506.47
  L 366.05 507.19
  L 369.02 515.22
  L 372.39 523.01
  L 376.15 530.57
  L 380.31 537.88
  L 380.31 537.88
  L 383.48 542.88
  L 386.84 547.77
  L 390.40 552.54
  L 394.16 557.19
  Z
  M 655.51 508.98
  L 647.75 515.75
  L 645.35 517.86
  L 639.36 522.71
  L 632.95 527.32
  L 625.90 531.84
  L 618.03 536.39
  L 610.07 540.36
  L 599.85 544.71
  L 579.26 553.17
  L 575.43 554.91
  L 571.94 556.76
  L 568.70 558.78
  L 565.88 560.86
  L 563.84 562.78
  L 562.16 564.93
  L 562.16 564.93
  L 562.16 564.93
  L 562.16 564.93
  L 561.03 566.93
  L 560.16 569.10
  L 559.54 571.44
  L 559.19 573.95
  L 558.79 583.06
  L 558.39 586.51
  L 557.50 589.80
  L 557.50 589.80
  L 556.53 592.12
  L 555.29 594.34
  L 553.78 596.47
  L 552.00 598.51
  L 543.19 607.19
  L 542.35 608.35
  L 542.33 608.46
  L 542.48 608.82
  L 542.85 608.92
  L 552.21 606.72
  L 561.26 604.05
  L 570.02 600.88
  L 578.48 597.24
  L 584.60 594.14
  L 589.28 591.26
  L 589.54 590.95
  L 589.53 590.52
  L 588.29 585.60
  L 587.77 580.90
  L 587.97 576.42
  L 588.89 572.16
  L 588.89 572.16
  L 589.97 569.30
  L 591.41 566.54
  L 593.21 563.89
  L 595.37 561.36
  L 598.11 558.92
  L 601.31 556.90
  L 605.00 555.33
  L 609.05 554.25
  L 611.07 553.96
  L 614.22 553.97
  L 617.48 554.51
  L 620.93 555.63
  L 624.57 557.32
  L 625.94 557.91
  L 626.96 558.07
  L 628.52 557.78
  L 629.47 557.20
  L 633.80 551.91
  L 638.15 545.92
  L 642.53 539.23
  L 646.92 531.85
  L 650.11 525.62
  L 654.11 516.49
  L 656.71 510.44
  L 657.57 506.72
  L 657.59 506.28
  L 657.31 506.63
  L 656.65 507.67
  L 655.51 508.98
  Z
  M 571.90 542.01
  L 570.77 541.96
  L 452.21 542.08
  L 450.71 542.16
  L 450.18 542.39
  L 450.18 542.39
  L 450.18 542.39
  L 450.61 542.78
  L 452.01 543.33
  L 462.16 546.42
  L 472.88 549.18
  L 484.17 551.59
  L 496.03 553.66
  L 517.95 556.98
  L 521.02 557.52
  L 524.56 558.33
  L 528.30 559.42
  L 530.90 560.46
  L 533.58 562.03
  L 535.73 563.79
  L 537.34 565.75
  L 538.42 567.90
  L 538.42 567.90
  L 538.92 569.91
  L 539.01 572.06
  L 538.71 574.35
  L 538.01 576.79
  L 536.74 579.34
  L 534.80 581.88
  L 532.17 584.41
  L 529.15 586.65
  L 521.79 591.15
  L 514.24 595.25
  L 514.24 595.25
  L 508.13 598.21
  L 501.90 600.92
  L 484.54 607.88
  L 483.34 608.39
  L 482.89 608.75
  L 482.77 609.05
  L 482.99 609.29
  L 483.55 609.46
  L 490.75 610.65
  L 497.72 611.49
  L 504.48 611.97
  L 511.01 612.10
  L 513.39 611.84
  L 514.40 611.50
  L 515.46 610.85
  L 535.88 596.61
  L 538.64 594.60
  L 541.05 592.56
  L 543.13 590.49
  L 544.87 588.40
  L 546.57 585.60
  L 546.99 584.38
  L 547.13 583.28
  L 547.20 576.52
  L 547.50 572.00
  L 548.03 568.94
  L 548.83 565.98
  L 548.83 565.98
  L 549.92 563.05
  L 551.29 560.21
  L 552.95 557.47
  L 554.89 554.81
  L 556.60 552.89
  L 558.60 551.06
  L 560.89 549.33
  L 563.46 547.68
  L 569.21 544.48
  L 573.53 542.51
  L 573.77 542.34
  L 573.51 542.21
  L 571.90 542.01
  Z
  M 404.79 568.26
  L 408.44 571.91
  L 412.52 575.57
  L 417.02 579.26
  L 421.94 582.97
  L 422.48 583.06
  L 422.88 582.70
  L 422.92 582.55
  L 423.12 579.46
  L 422.87 576.66
  L 422.18 574.14
  L 421.04 571.91
  L 421.04 571.91
  L 419.43 569.94
  L 417.36 568.27
  L 415.77 567.35
  L 414.16 566.68
  L 412.51 566.25
  L 410.84 566.08
  L 407.89 566.39
  L 404.92 567.51
  L 404.68 567.82
  L 404.75 568.21
  L 404.79 568.26
  Z
  M 604.37 569.42
  L 603.28 570.49
  L 602.38 571.69
  L 601.59 573.10
  L 600.98 574.61
  L 600.19 578.18
  L 600.12 581.98
  L 600.26 582.46
  L 600.58 582.84
  L 601.03 583.06
  L 601.53 583.07
  L 601.65 583.04
  L 602.44 582.72
  L 603.38 582.12
  L 610.22 576.40
  L 617.05 570.67
  L 617.80 569.85
  L 618.26 569.13
  L 618.31 569.01
  L 618.38 568.52
  L 618.24 568.04
  L 617.93 567.65
  L 617.48 567.43
  L 613.73 566.84
  L 610.07 566.99
  L 608.48 567.32
  L 606.95 567.85
  L 605.61 568.54
  L 604.37 569.42
  Z
  M 444.43 596.58
  L 456.94 602.10
  L 458.53 602.66
  L 460.12 602.86
  L 460.12 602.86
  L 460.12 602.86
  L 460.12 602.86
  L 461.49 602.75
  L 462.87 602.38
  L 464.25 601.74
  L 465.64 600.85
  L 466.28 600.23
  L 466.74 599.46
  L 466.98 598.62
  L 466.97 597.77
  L 466.54 596.02
  L 465.50 593.71
  L 464.04 591.69
  L 462.15 589.92
  L 459.95 588.55
  L 457.49 587.57
  L 454.89 587.07
  L 452.33 587.08
  L 449.79 587.59
  L 445.85 589.19
  L 445.85 589.19
  L 443.07 590.84
  L 440.49 592.87
  L 440.06 593.38
  L 439.94 593.87
  L 439.94 593.87
  L 440.13 594.34
  L 440.64 594.78
  L 442.42 595.76
  L 444.43 596.58
  Z"
/>
<path fill="#ffffff" d="
  M 507.40 697.29
  L 505.34 696.91
  L 502.39 696.99
  L 500.15 697.09
  L 498.13 696.94
  L 493.75 696.00
  L 493.14 695.58
  L 492.90 694.88
  L 492.90 685.86
  L 493.14 685.29
  L 493.71 685.05
  L 518.30 685.05
  L 518.96 685.17
  L 519.53 685.53
  L 519.93 686.07
  L 520.11 686.72
  L 520.22 689.64
  L 520.11 692.60
  L 519.77 695.60
  L 519.20 698.63
  L 518.28 701.73
  L 516.95 704.59
  L 516.95 704.59
  L 516.95 704.59
  L 515.58 706.73
  L 513.95 708.72
  L 511.83 710.79
  L 509.56 712.58
  L 507.06 714.14
  L 504.45 715.39
  L 501.71 716.34
  L 498.90 716.99
  L 496.04 717.32
  L 493.17 717.33
  L 490.85 717.10
  L 488.55 716.67
  L 486.28 716.02
  L 484.06 715.17
  L 481.92 714.11
  L 479.85 712.85
  L 477.95 711.44
  L 476.13 709.84
  L 473.83 707.40
  L 471.88 704.83
  L 470.27 702.12
  L 469.01 699.29
  L 469.01 699.29
  L 468.03 696.07
  L 467.46 692.70
  L 467.30 689.18
  L 467.54 685.50
  L 468.10 682.26
  L 469.01 679.10
  L 470.24 676.06
  L 471.79 673.17
  L 473.61 670.54
  L 475.71 668.13
  L 478.01 666.05
  L 480.56 664.26
  L 482.72 663.09
  L 485.10 662.08
  L 487.70 661.25
  L 490.53 660.58
  L 490.56 660.57
  L 494.13 660.15
  L 497.68 660.25
  L 501.32 660.88
  L 504.86 662.00
  L 508.40 663.65
  L 511.74 665.73
  L 514.89 668.27
  L 517.72 671.15
  L 517.82 671.43
  L 517.70 671.70
  L 510.12 678.78
  L 510.11 678.78
  L 509.67 679.06
  L 509.15 679.14
  L 508.64 679.01
  L 508.22 678.70
  L 505.62 676.09
  L 503.19 674.10
  L 501.94 673.33
  L 500.54 672.72
  L 497.28 671.96
  L 494.77 671.79
  L 492.43 671.95
  L 490.23 672.42
  L 488.20 673.22
  L 488.20 673.22
  L 486.13 674.47
  L 484.26 676.11
  L 482.58 678.14
  L 481.09 680.56
  L 479.68 683.96
  L 479.04 687.42
  L 479.04 687.42
  L 479.07 690.05
  L 479.53 692.70
  L 480.34 695.27
  L 481.41 697.56
  L 482.74 699.57
  L 484.32 701.31
  L 484.32 701.31
  L 484.32 701.31
  L 486.21 702.80
  L 488.36 704.00
  L 490.78 704.92
  L 493.47 705.55
  L 495.37 705.61
  L 497.65 705.23
  L 500.25 704.37
  L 502.66 703.22
  L 504.92 701.60
  L 506.69 699.63
  L 507.67 697.98
  L 507.73 697.57
  L 507.40 697.29
  Z"
/>
<path fill="#ffffff" d="
  M 299.29 660.81
  L 303.55 661.11
  L 304.20 661.40
  L 304.60 662.01
  L 323.15 715.27
  L 323.18 715.37
  L 323.04 715.86
  L 322.58 716.07
  L 312.37 716.07
  L 311.41 715.80
  L 310.84 714.99
  L 308.46 708.17
  L 308.26 707.81
  L 307.92 707.56
  L 306.61 707.13
  L 304.99 706.97
  L 299.16 706.94
  L 293.33 706.94
  L 291.71 707.09
  L 290.40 707.51
  L 290.06 707.76
  L 289.86 708.12
  L 287.44 714.93
  L 286.87 715.73
  L 285.90 716.00
  L 275.69 715.94
  L 275.23 715.73
  L 275.10 715.24
  L 275.10 715.24
  L 275.13 715.14
  L 293.97 661.98
  L 294.37 661.37
  L 295.02 661.08
  L 299.29 660.81
  Z
  M 303.06 695.54
  L 303.81 694.88
  L 303.87 693.89
  L 299.95 682.66
  L 299.49 682.22
  L 298.87 682.36
  L 298.71 682.55
  L 297.60 684.86
  L 296.64 687.53
  L 295.80 690.56
  L 295.11 693.94
  L 295.16 694.35
  L 295.45 694.62
  L 297.12 695.36
  L 298.75 695.81
  L 300.32 695.98
  L 301.84 695.86
  L 301.84 695.86
  L 303.06 695.54
  Z"
/>
<path fill="#ffffff" d="
  M 347.47 716.03
  L 342.73 715.92
  L 342.21 715.67
  L 342.00 715.13
  L 342.01 705.70
  L 341.65 696.22
  L 341.41 695.00
  L 340.81 693.31
  L 338.51 688.49
  L 325.70 664.09
  L 324.84 661.91
  L 324.95 661.30
  L 325.47 660.99
  L 325.56 660.98
  L 335.68 660.98
  L 336.62 661.24
  L 337.28 661.96
  L 347.17 680.91
  L 347.27 681.02
  L 347.40 681.05
  L 347.52 681.02
  L 347.63 680.91
  L 357.44 661.92
  L 358.10 661.20
  L 359.04 660.93
  L 369.16 660.89
  L 369.25 660.90
  L 369.77 661.22
  L 369.88 661.82
  L 369.03 664.00
  L 356.31 688.45
  L 354.03 693.28
  L 353.44 694.98
  L 353.21 696.20
  L 352.88 705.68
  L 352.93 715.11
  L 352.73 715.65
  L 352.20 715.90
  L 347.47 716.03
  Z"
/>
<path fill="#ffffff" d="
  M 438.63 697.89
  L 438.60 697.96
  L 438.60 697.96
  L 438.18 699.05
  L 438.00 700.26
  L 437.93 706.00
  L 438.17 714.79
  L 437.84 715.66
  L 436.99 716.04
  L 436.97 716.04
  L 427.58 716.04
  L 427.58 716.04
  L 427.18 715.87
  L 427.02 715.47
  L 427.02 661.56
  L 427.21 661.10
  L 427.66 660.90
  L 440.58 660.94
  L 444.68 661.15
  L 448.15 661.56
  L 450.98 662.17
  L 453.17 662.97
  L 454.83 663.87
  L 456.32 664.91
  L 457.64 666.07
  L 458.79 667.37
  L 458.79 667.37
  L 460.39 669.92
  L 461.49 672.86
  L 462.09 676.19
  L 462.19 679.91
  L 461.98 682.22
  L 461.52 684.38
  L 460.81 686.39
  L 459.85 688.25
  L 459.85 688.25
  L 459.85 688.25
  L 459.85 688.25
  L 458.83 689.72
  L 457.64 691.08
  L 454.70 693.47
  L 453.12 694.61
  L 452.14 695.54
  L 451.95 695.99
  L 452.11 696.44
  L 456.84 703.24
  L 462.38 711.77
  L 464.04 715.03
  L 464.03 715.65
  L 463.54 716.03
  L 463.39 716.05
  L 452.16 716.05
  L 451.62 715.91
  L 451.21 715.54
  L 439.24 697.86
  L 438.97 697.70
  L 438.68 697.82
  L 438.63 697.89
  Z
  M 437.98 673.12
  L 438.04 684.72
  L 438.39 685.56
  L 439.24 685.91
  L 442.19 685.89
  L 443.94 685.75
  L 445.63 685.36
  L 447.18 684.72
  L 448.54 683.87
  L 449.65 682.84
  L 450.48 681.66
  L 450.98 680.38
  L 451.15 679.06
  L 451.15 679.06
  L 451.15 678.66
  L 450.97 677.33
  L 450.45 676.06
  L 449.61 674.89
  L 448.49 673.87
  L 447.12 673.03
  L 445.56 672.41
  L 443.87 672.03
  L 442.11 671.91
  L 439.16 671.93
  L 438.34 672.26
  L 437.98 673.08
  L 437.98 673.12
  Z"
/>
<path fill="#ffffff" d="
  M 536.60 708.00
  L 534.57 713.81
  L 534.16 714.92
  L 533.50 715.66
  L 533.24 715.82
  L 531.10 716.33
  L 527.63 716.69
  L 524.28 716.41
  L 522.63 716.04
  L 522.00 715.61
  L 522.01 714.86
  L 540.75 662.20
  L 541.46 661.26
  L 542.58 660.91
  L 549.85 660.91
  L 550.61 661.15
  L 551.10 661.78
  L 554.00 669.68
  L 565.54 703.01
  L 567.47 709.03
  L 569.08 714.86
  L 569.10 714.97
  L 568.88 715.68
  L 568.20 715.98
  L 558.73 715.98
  L 558.03 715.76
  L 557.59 715.17
  L 555.12 708.08
  L 554.54 707.31
  L 553.61 707.04
  L 547.24 707.00
  L 540.75 706.47
  L 539.46 706.64
  L 537.26 707.36
  L 536.87 707.59
  L 536.60 708.00
  Z
  M 549.91 695.44
  L 550.25 695.56
  L 550.58 695.57
  L 550.57 695.24
  L 548.75 689.98
  L 548.01 687.23
  L 547.48 684.60
  L 546.65 682.35
  L 546.32 681.81
  L 546.01 681.64
  L 546.01 681.64
  L 546.01 681.64
  L 545.71 681.84
  L 545.43 682.41
  L 541.07 694.68
  L 541.04 694.78
  L 541.19 695.55
  L 541.86 695.96
  L 545.89 696.08
  L 547.73 695.85
  L 549.45 695.43
  L 549.66 695.40
  L 549.91 695.44
  Z"
/>
<path fill="#ffffff" d="
  M 587.47 698.08
  L 586.97 699.29
  L 586.90 701.31
  L 586.92 701.94
  L 587.15 714.84
  L 586.82 715.68
  L 586.00 716.03
  L 586.00 716.03
  L 585.99 716.03
  L 577.05 716.03
  L 576.28 715.71
  L 575.96 714.94
  L 575.96 662.46
  L 576.05 661.80
  L 576.34 661.32
  L 576.34 661.32
  L 576.81 661.03
  L 577.47 660.92
  L 586.55 660.90
  L 596.00 661.17
  L 598.37 661.46
  L 600.60 662.09
  L 602.69 663.03
  L 604.68 664.31
  L 606.46 665.87
  L 607.98 667.68
  L 609.22 669.70
  L 610.12 671.80
  L 610.69 674.04
  L 610.89 675.57
  L 611.05 679.55
  L 610.81 682.99
  L 610.19 685.71
  L 609.17 687.84
  L 608.72 688.49
  L 607.21 690.35
  L 605.48 692.06
  L 603.54 693.61
  L 601.39 695.00
  L 600.95 695.61
  L 601.09 696.35
  L 601.13 696.40
  L 604.59 700.93
  L 607.85 705.62
  L 610.93 710.47
  L 613.82 715.47
  L 613.86 715.58
  L 613.78 715.97
  L 613.41 716.15
  L 602.82 716.15
  L 601.29 715.77
  L 600.12 714.72
  L 588.90 698.15
  L 588.21 697.64
  L 587.47 698.08
  Z
  M 586.91 673.86
  L 587.12 684.02
  L 587.27 684.72
  L 587.68 685.32
  L 588.31 685.73
  L 589.05 685.87
  L 592.92 685.79
  L 594.35 685.63
  L 595.71 685.23
  L 596.97 684.61
  L 598.07 683.78
  L 598.96 682.77
  L 599.61 681.64
  L 600.00 680.41
  L 600.12 679.14
  L 600.12 679.14
  L 600.12 679.14
  L 600.10 678.18
  L 599.93 676.92
  L 599.49 675.71
  L 598.79 674.60
  L 597.85 673.64
  L 596.72 672.86
  L 595.44 672.28
  L 594.06 671.94
  L 592.62 671.85
  L 588.76 671.93
  L 588.03 672.09
  L 587.43 672.51
  L 587.03 673.13
  L 586.91 673.86
  Z"
/>
<path fill="#ffffff" d="
  M 619.13 661.66
  L 619.22 661.30
  L 619.49 661.03
  L 619.87 660.92
  L 634.37 660.95
  L 636.98 661.08
  L 639.57 661.45
  L 642.11 662.06
  L 644.57 662.91
  L 646.94 663.99
  L 649.18 665.28
  L 651.28 666.78
  L 653.22 668.47
  L 654.98 670.33
  L 656.53 672.35
  L 657.87 674.50
  L 658.99 676.77
  L 659.87 679.13
  L 660.50 681.57
  L 660.88 684.05
  L 661.00 686.56
  L 661.00 686.56
  L 661.00 686.56
  L 661.00 686.56
  L 661.00 690.72
  L 660.86 693.22
  L 660.47 695.70
  L 659.83 698.13
  L 658.95 700.49
  L 657.82 702.76
  L 656.48 704.91
  L 654.91 706.92
  L 653.15 708.78
  L 651.21 710.46
  L 649.10 711.95
  L 646.85 713.23
  L 644.49 714.30
  L 642.02 715.14
  L 639.48 715.75
  L 636.89 716.11
  L 634.27 716.23
  L 619.77 716.20
  L 619.25 715.99
  L 619.03 715.46
  L 619.03 715.46
  L 619.13 661.66
  Z
  M 629.93 674.50
  L 630.03 702.56
  L 630.16 703.18
  L 630.51 703.71
  L 631.05 704.07
  L 631.67 704.19
  L 635.55 704.18
  L 638.40 703.87
  L 641.14 702.97
  L 643.66 701.53
  L 645.86 699.59
  L 647.67 697.22
  L 649.01 694.53
  L 649.83 691.61
  L 650.10 688.57
  L 650.10 688.33
  L 649.81 685.30
  L 648.97 682.39
  L 647.61 679.70
  L 645.78 677.35
  L 643.57 675.43
  L 641.04 674.00
  L 638.29 673.12
  L 635.45 672.84
  L 631.57 672.85
  L 630.94 672.98
  L 630.41 673.33
  L 630.05 673.87
  L 629.93 674.50
  Z"
/>
<path fill="#ffffff" d="
  M 736.06 692.57
  L 736.45 693.14
  L 736.74 693.28
  L 736.74 693.28
  L 736.74 693.28
  L 736.90 693.02
  L 736.96 692.33
  L 736.96 662.31
  L 737.05 661.69
  L 737.31 661.26
  L 737.31 661.26
  L 737.31 661.26
  L 737.75 661.00
  L 738.35 660.91
  L 747.04 660.91
  L 747.72 661.19
  L 748.00 661.87
  L 748.00 715.21
  L 747.88 715.59
  L 747.53 715.78
  L 744.43 716.15
  L 741.37 716.13
  L 741.37 716.13
  L 738.71 715.78
  L 737.61 715.38
  L 736.89 714.68
  L 719.78 685.75
  L 719.34 685.30
  L 719.16 685.91
  L 717.85 715.48
  L 717.69 715.89
  L 717.27 716.03
  L 707.84 716.03
  L 707.23 715.83
  L 707.03 715.22
  L 707.03 662.15
  L 707.38 661.29
  L 708.24 660.94
  L 716.52 660.94
  L 717.63 661.23
  L 718.44 662.04
  L 736.06 692.57
  Z"
/>
<path fill="#ffffff" d="
  M 405.33 701.57
  L 405.71 700.28
  L 405.88 698.02
  L 406.05 662.02
  L 406.05 661.99
  L 406.44 661.12
  L 407.34 660.79
  L 416.62 661.20
  L 417.36 661.46
  L 417.69 662.17
  L 417.88 667.25
  L 416.86 703.02
  L 416.62 704.97
  L 415.99 706.82
  L 414.51 709.05
  L 412.02 711.64
  L 409.62 713.72
  L 407.31 715.29
  L 405.08 716.36
  L 403.55 716.77
  L 401.49 717.06
  L 395.75 717.26
  L 392.46 716.96
  L 389.38 716.10
  L 389.38 716.10
  L 387.43 715.20
  L 385.58 714.05
  L 383.83 712.64
  L 382.17 710.98
  L 380.94 709.46
  L 379.90 707.89
  L 379.08 706.25
  L 378.46 704.55
  L 378.46 704.55
  L 377.94 702.13
  L 377.80 699.59
  L 377.95 670.76
  L 378.26 661.56
  L 378.55 660.97
  L 379.16 660.75
  L 388.36 661.16
  L 388.80 661.36
  L 388.98 661.81
  L 389.00 698.50
  L 389.14 699.84
  L 389.55 701.18
  L 390.17 702.33
  L 391.01 703.29
  L 392.32 704.28
  L 393.72 705.04
  L 395.30 705.57
  L 396.91 705.83
  L 398.48 705.82
  L 400.02 705.56
  L 401.48 705.03
  L 402.85 704.24
  L 404.20 703.07
  L 405.33 701.57
  Z"
/>
<path fill="#ffffff" d="
  M 681.01 672.84
  L 681.01 681.92
  L 681.28 682.72
  L 682.08 682.99
  L 694.55 682.99
  L 694.55 682.99
  L 695.15 683.11
  L 695.67 683.46
  L 696.01 683.97
  L 696.13 684.58
  L 696.13 693.39
  L 696.00 694.03
  L 695.64 694.57
  L 695.11 694.93
  L 694.47 695.06
  L 694.47 695.06
  L 682.21 695.06
  L 681.32 695.35
  L 681.09 695.74
  L 681.01 696.29
  L 681.01 703.73
  L 681.32 704.65
  L 682.24 704.96
  L 697.98 704.96
  L 698.75 705.22
  L 699.00 705.98
  L 699.00 715.02
  L 698.71 715.72
  L 698.02 716.01
  L 669.54 716.01
  L 669.54 716.01
  L 669.23 715.88
  L 669.10 715.56
  L 669.10 662.26
  L 669.23 661.79
  L 669.62 661.49
  L 671.14 661.10
  L 673.00 660.98
  L 697.74 660.94
  L 698.59 661.28
  L 698.95 662.13
  L 698.95 662.13
  L 698.95 670.92
  L 698.95 670.92
  L 698.62 671.71
  L 697.82 672.04
  L 681.80 672.04
  L 681.80 672.04
  L 681.24 672.27
  L 681.01 672.84
  Z"
/>
<path fill="#ffffff" d="
  M 370.64 758.94
  L 371.74 759.48
  L 372.87 759.77
  L 372.87 759.77
  L 374.88 759.69
  L 376.98 758.90
  L 377.71 758.40
  L 378.26 757.78
  L 378.66 756.91
  L 378.81 755.87
  L 379.21 741.18
  L 379.38 740.26
  L 379.79 739.57
  L 380.45 739.13
  L 381.36 738.93
  L 381.45 738.92
  L 382.42 739.03
  L 383.12 739.42
  L 383.12 739.42
  L 383.52 740.02
  L 383.70 740.85
  L 384.03 748.41
  L 383.87 755.09
  L 383.61 756.97
  L 383.09 758.66
  L 382.32 760.14
  L 381.32 761.41
  L 380.10 762.43
  L 378.66 763.24
  L 377.02 763.80
  L 375.17 764.12
  L 372.06 764.02
  L 369.07 763.19
  L 366.66 761.81
  L 365.73 760.96
  L 364.98 759.97
  L 364.39 758.80
  L 363.90 757.36
  L 363.23 753.63
  L 362.91 747.76
  L 363.18 741.82
  L 363.38 740.98
  L 363.80 740.38
  L 364.44 740.02
  L 365.30 739.90
  L 366.20 739.90
  L 366.95 740.01
  L 367.48 740.33
  L 367.48 740.33
  L 367.48 740.33
  L 367.81 740.86
  L 367.92 741.61
  L 368.13 752.96
  L 368.53 756.05
  L 368.98 757.17
  L 369.66 758.15
  L 370.64 758.94
  Z"
/>
<path fill="#ffffff" d="
  M 624.06 755.12
  L 624.47 755.62
  L 624.76 755.73
  L 624.76 755.73
  L 624.93 755.47
  L 624.99 754.83
  L 624.99 741.23
  L 625.30 740.30
  L 626.24 739.99
  L 628.69 739.99
  L 629.59 740.29
  L 629.91 741.18
  L 629.91 760.03
  L 629.90 760.50
  L 629.76 762.46
  L 629.21 763.56
  L 628.60 763.96
  L 627.70 764.17
  L 626.41 764.10
  L 625.21 763.62
  L 624.03 762.67
  L 622.93 761.32
  L 621.67 759.30
  L 620.52 757.47
  L 614.80 749.16
  L 614.64 749.01
  L 614.21 749.02
  L 614.00 749.40
  L 613.92 761.51
  L 613.75 762.63
  L 613.26 763.42
  L 613.26 763.42
  L 612.58 763.84
  L 611.66 764.01
  L 611.55 764.01
  L 610.43 763.80
  L 609.64 763.29
  L 609.64 763.29
  L 609.20 762.54
  L 609.05 761.52
  L 609.02 742.22
  L 609.22 740.89
  L 609.80 739.98
  L 609.80 739.98
  L 609.80 739.98
  L 610.65 739.52
  L 611.82 739.40
  L 612.54 739.58
  L 613.36 740.05
  L 615.26 741.88
  L 616.77 743.84
  L 618.49 746.47
  L 624.06 755.12
  Z"
/>
<path fill="#ffffff" d="
  M 528.77 754.30
  L 528.54 754.73
  L 528.11 755.89
  L 527.87 757.32
  L 528.02 761.22
  L 528.13 762.58
  L 528.08 763.24
  L 527.83 763.71
  L 527.83 763.71
  L 527.83 763.71
  L 527.38 764.00
  L 526.73 764.09
  L 525.61 764.09
  L 524.89 763.99
  L 524.38 763.68
  L 524.38 763.68
  L 524.07 763.17
  L 523.97 762.45
  L 523.97 741.33
  L 524.08 740.78
  L 524.39 740.32
  L 524.85 740.01
  L 525.40 739.90
  L 526.41 739.90
  L 527.10 740.00
  L 527.60 740.30
  L 527.89 740.79
  L 527.99 741.48
  L 527.99 748.12
  L 528.01 748.33
  L 528.52 748.97
  L 529.34 748.97
  L 530.13 748.43
  L 531.05 747.44
  L 533.18 744.24
  L 533.49 743.73
  L 534.53 742.20
  L 535.51 741.11
  L 536.55 740.30
  L 537.70 739.77
  L 539.46 739.53
  L 541.53 739.89
  L 541.56 739.90
  L 541.84 740.17
  L 541.83 740.56
  L 540.70 742.55
  L 539.53 744.00
  L 536.34 747.30
  L 533.45 750.93
  L 533.31 751.29
  L 533.55 751.88
  L 542.26 761.98
  L 542.66 762.60
  L 542.70 763.11
  L 542.35 763.53
  L 541.57 763.83
  L 540.76 764.02
  L 539.81 764.11
  L 538.87 763.96
  L 538.01 763.57
  L 537.27 762.96
  L 529.14 754.26
  L 529.12 754.24
  L 528.77 754.30
  Z"
/>
<path fill="#ffffff" d="
  M 397.39 744.05
  L 392.19 743.86
  L 391.22 743.69
  L 390.63 743.25
  L 390.63 743.25
  L 390.44 742.27
  L 390.45 742.08
  L 390.58 741.10
  L 390.99 740.43
  L 390.99 740.43
  L 390.99 740.43
  L 391.55 740.11
  L 392.31 740.00
  L 408.82 739.98
  L 409.39 740.06
  L 409.80 740.31
  L 409.80 740.31
  L 410.05 740.72
  L 410.13 741.29
  L 410.13 742.68
  L 409.75 743.60
  L 408.84 743.98
  L 403.80 743.98
  L 403.23 744.22
  L 402.99 744.79
  L 402.99 761.68
  L 402.84 762.75
  L 402.38 763.52
  L 401.61 764.00
  L 400.53 764.17
  L 400.18 764.17
  L 399.27 764.12
  L 398.59 763.79
  L 398.59 763.79
  L 398.59 763.79
  L 398.07 762.99
  L 397.91 761.75
  L 398.13 744.96
  L 397.88 744.22
  L 397.39 744.05
  Z"
/>
<path fill="#ffffff" d="
  M 473.11 755.72
  L 472.83 762.07
  L 472.69 762.84
  L 472.34 763.42
  L 472.34 763.42
  L 472.34 763.42
  L 471.80 763.81
  L 471.05 764.02
  L 470.63 764.07
  L 469.40 763.85
  L 468.57 763.29
  L 468.57 763.29
  L 468.19 762.59
  L 468.06 761.68
  L 467.97 740.71
  L 468.22 740.07
  L 468.84 739.79
  L 473.96 739.73
  L 479.18 739.93
  L 481.52 740.18
  L 483.35 740.63
  L 484.76 741.29
  L 485.87 742.24
  L 486.51 743.21
  L 486.93 744.41
  L 487.14 745.75
  L 487.15 747.34
  L 486.83 750.12
  L 486.37 751.02
  L 485.32 752.17
  L 483.44 754.10
  L 483.21 754.52
  L 483.19 755.00
  L 483.67 756.83
  L 484.51 758.71
  L 486.01 761.20
  L 486.74 762.36
  L 487.02 762.99
  L 486.99 763.46
  L 486.99 763.46
  L 486.62 763.79
  L 485.92 763.96
  L 484.51 764.09
  L 483.63 764.07
  L 482.88 763.82
  L 482.88 763.82
  L 482.88 763.82
  L 482.27 763.38
  L 481.76 762.74
  L 478.74 757.58
  L 478.00 756.44
  L 477.05 755.61
  L 477.05 755.61
  L 475.65 755.02
  L 473.96 754.88
  L 473.37 755.14
  L 473.11 755.72
  Z
  M 472.96 745.45
  L 472.92 749.43
  L 473.24 750.39
  L 474.07 750.97
  L 474.50 751.03
  L 479.19 751.07
  L 480.31 750.87
  L 481.26 750.26
  L 481.90 749.35
  L 482.13 748.27
  L 482.15 746.77
  L 481.93 745.69
  L 481.31 744.76
  L 480.37 744.14
  L 479.25 743.91
  L 474.56 743.87
  L 473.95 743.99
  L 473.43 744.33
  L 473.08 744.84
  L 472.96 745.45
  Z"
/>
<path fill="#ffffff" d="
  M 587.65 758.67
  L 587.00 758.68
  L 586.98 758.66
  L 586.80 758.54
  L 586.25 758.43
  L 585.64 758.64
  L 585.09 759.12
  L 584.70 759.79
  L 583.57 762.70
  L 583.21 763.34
  L 582.73 763.72
  L 582.73 763.72
  L 582.13 763.84
  L 581.41 763.69
  L 580.19 763.26
  L 580.11 763.23
  L 579.47 762.80
  L 579.04 762.16
  L 578.91 761.40
  L 579.08 760.64
  L 582.96 751.35
  L 585.92 742.51
  L 586.47 741.21
  L 587.22 740.38
  L 588.31 739.93
  L 589.75 739.85
  L 590.78 740.01
  L 591.65 740.41
  L 591.65 740.41
  L 592.32 740.98
  L 592.85 741.74
  L 594.40 745.03
  L 596.08 749.68
  L 598.26 755.46
  L 599.92 759.39
  L 600.83 762.40
  L 600.71 763.28
  L 600.71 763.28
  L 600.38 763.51
  L 599.86 763.58
  L 598.05 763.58
  L 597.15 763.36
  L 596.52 762.70
  L 594.77 759.67
  L 594.47 759.34
  L 594.05 759.20
  L 588.59 758.53
  L 587.65 758.67
  Z
  M 592.52 754.02
  L 592.70 753.92
  L 592.70 753.71
  L 590.17 746.47
  L 589.78 746.19
  L 589.39 746.47
  L 587.11 752.87
  L 587.03 753.24
  L 587.13 753.89
  L 587.51 754.42
  L 588.08 754.74
  L 588.74 754.76
  L 592.52 754.02
  Z"
/>
<path fill="#ffffff" d="
  M 639.84 741.51
  L 639.98 740.79
  L 640.38 740.17
  L 640.38 740.17
  L 640.99 739.76
  L 641.71 739.61
  L 648.97 739.54
  L 650.90 739.68
  L 652.78 740.13
  L 654.56 740.87
  L 656.20 741.89
  L 658.22 743.78
  L 659.76 746.08
  L 660.72 748.68
  L 661.07 751.43
  L 661.07 751.85
  L 660.86 754.19
  L 660.20 756.44
  L 659.11 758.53
  L 657.63 760.36
  L 655.83 761.86
  L 653.77 762.99
  L 651.52 763.69
  L 649.19 763.94
  L 641.93 764.01
  L 641.00 763.77
  L 640.29 763.09
  L 640.02 762.13
  L 639.84 741.51
  Z
  M 644.06 745.97
  L 644.08 757.35
  L 644.21 758.10
  L 644.59 758.76
  L 645.16 759.25
  L 645.87 759.52
  L 645.87 759.52
  L 646.30 759.57
  L 649.21 759.56
  L 650.57 759.42
  L 651.87 759.00
  L 653.07 758.33
  L 654.12 757.42
  L 654.99 756.31
  L 655.63 755.05
  L 656.02 753.68
  L 656.15 752.26
  L 656.15 751.02
  L 656.01 749.60
  L 655.62 748.23
  L 654.97 746.97
  L 654.10 745.87
  L 653.05 744.96
  L 651.85 744.29
  L 650.54 743.88
  L 649.19 743.74
  L 649.19 743.74
  L 646.28 743.75
  L 645.43 743.92
  L 644.71 744.40
  L 644.23 745.12
  L 644.06 745.97
  Z"
/>
<path fill="#ffffff" d="
  M 421.43 744.22
  L 418.97 743.88
  L 416.10 744.02
  L 415.22 743.83
  L 414.93 742.98
  L 414.93 741.08
  L 415.20 740.27
  L 416.01 740.00
  L 432.99 740.00
  L 433.77 740.26
  L 434.03 741.05
  L 434.03 742.80
  L 433.95 743.36
  L 433.71 743.76
  L 432.76 744.08
  L 427.26 744.08
  L 426.57 744.34
  L 426.22 744.99
  L 425.94 748.66
  L 426.13 752.15
  L 427.00 761.44
  L 426.93 762.37
  L 426.58 763.10
  L 426.58 763.10
  L 425.91 763.66
  L 424.92 763.97
  L 424.08 764.11
  L 423.16 764.13
  L 422.50 763.84
  L 422.10 763.23
  L 421.97 762.32
  L 421.97 744.92
  L 421.83 744.46
  L 421.43 744.22
  Z"
/>
<path fill="#ffffff" d="
  M 448.86 739.91
  L 449.30 739.90
  L 450.56 739.94
  L 451.33 740.20
  L 451.88 740.75
  L 452.35 741.71
  L 459.93 761.79
  L 459.98 762.72
  L 459.48 763.50
  L 459.38 763.58
  L 459.38 763.58
  L 458.29 763.97
  L 456.83 763.85
  L 456.14 763.49
  L 455.53 762.83
  L 454.23 760.33
  L 454.06 759.93
  L 453.48 759.23
  L 452.62 758.95
  L 449.01 758.91
  L 445.39 759.01
  L 444.53 759.30
  L 443.97 760.01
  L 443.80 760.41
  L 442.54 762.92
  L 441.95 763.59
  L 441.26 763.97
  L 439.80 764.11
  L 438.70 763.73
  L 438.70 763.73
  L 438.60 763.66
  L 438.09 762.88
  L 438.13 761.95
  L 445.40 741.76
  L 445.86 740.79
  L 446.40 740.24
  L 447.17 739.97
  L 448.43 739.91
  L 448.86 739.91
  Z
  M 451.44 753.94
  L 451.63 753.84
  L 451.64 753.63
  L 449.35 746.27
  L 448.97 745.98
  L 448.56 746.25
  L 446.05 752.59
  L 445.96 752.97
  L 446.04 753.62
  L 446.40 754.17
  L 446.96 754.50
  L 447.62 754.55
  L 451.44 753.94
  Z"
/>
<path fill="#ffffff" d="
  M 504.81 739.89
  L 506.36 739.94
  L 507.49 740.35
  L 508.21 741.33
  L 515.52 762.33
  L 515.66 763.04
  L 515.51 763.55
  L 515.51 763.55
  L 515.08 763.85
  L 514.37 763.95
  L 512.77 763.95
  L 511.60 763.62
  L 510.88 762.60
  L 509.91 759.83
  L 509.53 759.26
  L 508.89 759.02
  L 504.81 758.93
  L 500.73 759.02
  L 500.09 759.26
  L 499.71 759.83
  L 498.75 762.60
  L 498.03 763.62
  L 496.86 763.95
  L 495.26 763.95
  L 494.54 763.85
  L 494.11 763.55
  L 494.11 763.55
  L 493.97 763.04
  L 494.11 762.33
  L 501.41 741.33
  L 502.12 740.35
  L 503.26 739.94
  L 504.81 739.89
  Z
  M 501.84 753.59
  L 501.83 753.62
  L 501.90 754.32
  L 502.45 754.76
  L 504.72 755.13
  L 507.14 755.00
  L 507.21 754.99
  L 507.67 754.63
  L 507.72 754.05
  L 505.22 746.88
  L 504.97 746.35
  L 504.73 746.18
  L 504.73 746.18
  L 504.48 746.35
  L 504.23 746.88
  L 501.84 753.59
  Z"
/>
<path fill="#ffffff" d="
  M 565.29 749.97
  L 565.78 749.72
  L 565.97 749.22
  L 565.97 741.59
  L 566.07 740.86
  L 566.38 740.35
  L 566.38 740.35
  L 566.90 740.04
  L 567.61 739.94
  L 568.41 739.94
  L 568.57 739.95
  L 569.44 740.21
  L 570.13 740.81
  L 570.54 741.66
  L 570.59 742.61
  L 570.08 747.49
  L 569.94 752.24
  L 570.14 756.86
  L 570.71 761.34
  L 570.73 762.33
  L 570.42 763.04
  L 570.42 763.04
  L 569.78 763.46
  L 568.80 763.60
  L 568.42 763.60
  L 567.36 763.45
  L 566.60 762.99
  L 566.14 762.23
  L 565.99 761.17
  L 565.99 755.26
  L 565.99 755.20
  L 565.57 754.26
  L 564.61 753.88
  L 555.97 753.88
  L 555.31 754.16
  L 555.03 754.82
  L 555.03 762.11
  L 554.89 763.09
  L 554.47 763.75
  L 553.76 764.10
  L 552.77 764.13
  L 552.44 764.10
  L 551.35 763.83
  L 550.58 763.28
  L 550.58 763.28
  L 550.11 762.45
  L 549.96 761.35
  L 549.96 741.13
  L 550.29 740.33
  L 551.09 740.00
  L 553.87 740.00
  L 554.77 740.31
  L 555.01 741.21
  L 555.07 747.44
  L 555.30 748.53
  L 555.82 749.31
  L 555.82 749.31
  L 556.50 749.74
  L 557.39 749.93
  L 561.84 750.14
  L 565.29 749.97
  Z"
/>
</svg>
